<svg width="455" height="455" viewBox="0 0 455 455" fill="none" xmlns="http://www.w3.org/2000/svg">
<path fill-rule="evenodd" clip-rule="evenodd" d="M248.974 39.3601C355.149 39.3601 377.503 186.505 377.937 187.716C378.385 188.963 378.807 190.247 379.214 191.493C380.042 194.024 381.108 196.461 381.936 198.975C382.443 200.509 383.374 201.779 383.998 203.228C385.209 205.995 386.693 208.636 388.427 211.11C389.143 212.09 389.706 213.173 390.096 214.322C390.37 215.201 391.277 215.435 391.669 216.211C392.303 217.467 393.149 218.615 393.88 219.821C394.047 220.245 394.43 220.546 394.882 220.609L394.739 221.807C395.004 222.238 395.094 221.655 395.371 221.758C395.718 222.225 396.213 222.64 396.263 223.351C396.309 224.02 397.09 224.083 397.357 224.666C397.942 225.932 399.571 226.577 399.547 228.239C400.718 228.974 401.294 230.236 402.177 231.226C402.631 231.682 402.907 232.282 402.96 232.919L402.968 233.067C402.961 233.7 404.185 233.558 403.856 234.423C405.729 235.829 406.215 238.126 407.205 240.029C408.791 243.082 410.62 246.033 411.697 249.376C412.237 251.049 413.283 252.631 413.865 254.325C415.173 258.132 416.744 261.856 417.594 265.821C417.945 267.458 418.661 269.018 418.997 270.661L419.384 272.559C419.96 275.407 420.506 278.263 420.869 281.149C421.055 281.8 421.055 282.491 420.868 283.142C420.556 283.883 421.386 284.358 421.452 285.101C421.536 285.983 421.183 286.818 421.437 287.755C421.577 288.27 421.437 289.099 421.598 289.698C422.119 291.644 421.459 293.651 422.026 295.584C422.115 296.332 422.037 297.089 421.796 297.802C421.404 300.182 422.122 302.612 421.405 304.936C421.07 306.082 421.006 307.289 421.217 308.462L421.305 308.914C421.369 309.249 421.411 309.575 421.246 309.801C420.594 310.693 420.761 311.746 420.632 312.722L420.607 312.883C420.419 313.977 420.613 315.122 420.282 316.235C419.832 317.326 419.579 318.487 419.535 319.665C419.702 321.664 419.029 323.457 418.617 325.313C418.412 326.24 418.582 327.342 417.562 328.031C417.043 328.382 418.267 329.063 417.525 329.576L417.437 329.63C416.893 329.938 416.916 330.434 417.07 331.028C417.21 331.572 416.261 331.947 416.533 332.503C416.804 333.059 416.927 333.869 416.609 333.971C415.816 334.231 416.623 335.093 415.957 335.257C415.891 335.293 415.846 335.356 415.834 335.43C415.607 337.517 414.263 339.23 413.931 341.317C413.679 342.562 413.194 343.749 412.501 344.815C411.927 345.844 411.439 346.919 411.042 348.028C410.297 349.893 409.021 351.451 408.302 353.308C408.107 353.81 406.806 353.642 407.468 354.673C406.708 354.941 406.939 355.728 406.634 356.219C406.297 356.59 405.906 356.907 405.472 357.159C405.192 358.264 404.654 359.288 403.904 360.146C402.592 362.065 401.161 363.898 399.618 365.636L398.343 367.063C396.639 368.966 394.88 370.828 392.635 372.14C392.057 372.477 392.32 373.117 391.845 373.464C389.092 375.496 386.556 377.802 383.424 379.342C382.113 379.988 380.989 381.133 379.649 381.805C377.11 383.079 374.752 384.666 372.036 385.659L371.553 385.828C369.823 386.404 368.12 387.276 366.364 387.909C362.756 389.326 358.991 390.305 355.149 390.823L352.779 391.086C350.673 391.319 348.563 391.533 346.435 391.591C345.428 391.619 344.462 391.3 343.54 391.415C342.642 391.528 341.731 391.455 340.863 391.199C340.177 391.007 339.597 391.597 338.858 391.28C338.291 390.926 337.589 390.872 336.978 391.131L336.857 391.187C336.507 391.39 335.818 391.015 335.284 390.895C334.506 390.786 333.742 390.597 333.003 390.331C332.431 390.066 331.701 390.917 331.302 390.012C330.578 390.574 281.387 378.885 236.201 402.622C232.522 405.06 228.216 406.131 224.284 408.024C222.456 408.906 220.401 409.309 218.433 409.911L218.013 410.044C214.54 411.166 210.978 411.932 207.421 412.733C204.154 413.44 200.843 413.932 197.51 414.206C195.114 414.422 192.707 414.523 190.316 414.784C189.347 414.889 188.397 414.206 187.449 414.793C185.317 414.213 183.08 414.917 180.955 414.262C179.542 414.68 178.214 414.161 176.914 413.779C175.923 413.485 174.989 414.095 173.987 413.662C173.075 413.186 172.054 412.96 171.026 413.004C169.319 413.266 167.834 412.64 166.28 412.309C162.669 411.54 159.07 410.709 155.485 409.815C154.311 409.521 152.992 409.635 151.986 408.737C151.103 407.949 149.71 408.443 148.843 407.512C148.527 407.173 148.123 407.83 147.646 407.574C146.717 407.074 145.522 407.404 144.653 406.503C144.009 405.836 142.795 406.287 142.082 405.482L141.988 405.364C141.568 404.78 140.458 406.157 140.13 404.856C138.804 404.755 137.705 404.032 136.524 403.537C135.546 403.128 134.391 403.359 133.509 402.507C132.756 401.781 131.335 402.315 130.683 401.227C129.089 401.214 127.914 400.021 126.395 399.707C125.241 399.404 124.134 398.949 123.102 398.352C121.466 397.511 119.805 396.718 118.132 395.967C117.531 395.687 116.947 395.375 116.381 395.032C116.063 394.846 115.986 394.435 115.533 394.335C112.663 393.699 110.25 392.027 107.799 390.564C106.401 389.842 105.064 389.009 103.799 388.074L103.381 387.759C103.011 387.44 102.242 387.284 101.917 386.841C101.01 385.609 99.653 385.007 98.4229 384.267L98.2191 384.142C97.5261 383.734 96.8961 383.227 96.349 382.638C96.2454 382.525 96.2033 382.282 96.0933 382.255C94.0513 381.751 92.8327 380.064 91.2715 378.885C89.9285 377.872 88.7538 376.637 87.4314 375.604L86.928 375.227C83.8332 373.013 49.9702 335.752 46.1331 329.321L45.035 327.481C43.9385 325.637 42.8546 323.78 41.8566 321.886L41.0067 320.274C40.1582 318.658 39.323 317.031 38.5846 315.375L37.5967 313.165C35.6257 308.743 33.697 304.298 32.0531 299.732C30.5872 295.659 29.3737 291.518 28.1486 287.374C27.3639 284.714 26.7008 282.041 26.1406 279.33C25.2457 274.998 24.4476 270.648 23.7465 266.28C23.0925 262.168 23.3344 257.995 22.4611 253.93C23.0333 251.433 21.9814 248.899 22.6345 246.405C22.15 245.174 22.5761 243.896 22.6216 242.682C22.6683 241.429 22.3872 240.116 22.8876 238.846C23.1169 238.27 22.587 237.576 22.8741 236.872C23.1893 236.286 23.2257 235.589 22.9733 234.974C23.8241 234.582 22.8099 233.98 23.1633 233.423C23.5442 232.818 23.7125 232.104 23.6415 231.393C23.3938 229.802 24.3102 228.333 24.1493 226.896C23.9816 225.426 24.7075 224.18 24.7052 222.863L24.6959 222.615C24.5706 220.885 25.8069 219.583 25.8481 217.947C25.852 217.804 26.1904 217.672 26.376 217.529C26.3164 217.161 25.9094 217.245 25.6207 216.958C26.0816 216.558 26.4849 216.097 26.8191 215.586C27.0721 214.887 27.2517 214.162 27.3552 213.426L26.1832 211.914C26.6157 211.049 26.4649 210.262 27.0423 209.584C27.2936 209.288 27.1535 208.382 27.1845 207.757C27.2254 206.936 28.2808 206.446 28.0262 205.798C27.8298 205.052 27.8934 204.261 28.2066 203.556C29.7166 196.899 31.2546 190.249 32.8207 183.605C32.9854 182.893 32.8421 181.998 33.7184 181.58C32.7608 180.592 34.2647 180.247 34.288 179.463C34.4101 178.73 34.6924 178.034 35.1148 177.422C35.713 176.279 35.768 174.859 36.1087 173.57C36.1984 172.659 36.5435 171.792 37.1045 171.067C37.6879 170.463 37.6038 169.411 38.0431 168.563C38.6637 167.538 39.1446 166.435 39.4732 165.283C39.5722 164.456 39.9022 163.672 40.4255 163.023C40.8901 162.51 40.5085 161.448 41.4116 161.061C41.6649 159.572 42.5538 158.376 43.2119 157.072L43.3323 156.826C44.9488 153.469 46.7657 150.213 48.7731 147.073C50.4408 144.431 52.0636 141.761 53.7568 139.135C54.3077 138.288 54.8934 137.444 55.4992 136.639C57.6034 133.68 59.87 130.839 62.2884 128.13C64.5003 125.786 66.6088 123.337 68.9312 121.083C70.1658 119.884 71.1762 118.412 72.3748 117.138C75.1995 114.132 78.1002 111.207 81.1511 108.431C83.7276 105.886 86.5452 103.596 89.5644 101.593C90.3852 101.094 91.0602 100.362 91.8525 99.8096C92.8144 99.2798 93.7374 98.6824 94.6145 98.022C95.6349 97.0624 96.887 96.452 97.9177 95.5629C98.7178 94.8731 99.9977 95.2664 100.57 94.0256C100.988 93.1227 102.55 93.4535 103.076 92.3985C104.518 92.3506 105.192 90.9543 106.501 90.4953L106.676 90.4409C108.056 90.0645 109.233 88.9507 110.499 88.161C111.72 87.2964 112.998 86.5144 114.323 85.8202C116.812 84.6995 118.96 82.9918 121.393 81.8342C123.713 80.732 125.8 79.1184 128.33 78.5039C128.927 78.3592 128.816 77.8322 129.227 77.6072C129.655 77.372 130.124 77.5278 130.511 77.2564C132.11 76.2129 142.798 39.3601 248.974 39.3601Z" fill="#FF565E"/>
<path fill-rule="evenodd" clip-rule="evenodd" d="M129.207 118.352C125.655 120.356 120.455 117.8 119.872 113.764C122.137 113.643 124.558 113.466 126.349 112.074C128.14 110.681 128.767 107.598 126.972 106.211C112.357 104.416 98.1408 99.4507 85.5871 91.7566C94.159 89.1737 101.535 83.7254 109.586 79.8108C117.638 75.8962 127.376 73.5811 135.406 77.5394C143.291 81.4262 152.368 76.4683 160.596 73.3734C174.903 67.9918 191.309 68.443 205.299 74.6028C215.506 79.0969 232.802 71.8024 243.828 70.1294C261.839 67.3967 279.421 80.0201 297.507 77.8339C295.566 79.1168 293.626 80.3997 291.686 81.6825C293.597 81.5079 295.518 81.4373 297.436 81.4711C282.427 88.6533 267.418 95.8356 252.409 103.018C256.212 104.556 260.014 106.094 263.816 107.632C262.922 110.497 259.718 112.433 256.766 111.89C259.141 113.781 261.517 115.671 263.892 117.562C261.357 119.362 258.147 120.19 255.057 119.839C258.348 121.964 261.065 124.971 262.846 128.46C270.686 125.848 279.275 125.526 287.288 127.545C280.048 128.494 272.808 129.443 265.567 130.392C266.661 133.369 267.754 136.346 268.847 139.323C278.306 137.159 288.358 137.651 297.56 140.729C288.436 140.961 279.311 141.193 270.186 141.426C269.972 153.532 263.946 165.878 253.363 171.761C242.78 177.644 221.633 182.875 214.629 165.745C209.266 169.265 209.646 177.725 213.469 182.875C217.293 188.025 223.367 190.876 228.861 194.186C247.109 205.184 260.873 223.397 266.471 243.954C272.069 264.512 269.441 287.188 259.289 305.92C272.976 308.048 285.695 315.837 293.81 327.062C311.287 318.93 320.967 300.376 334.354 286.506C349.582 270.73 370.604 260.674 392.444 258.718C405.366 257.561 420.102 260.052 427.639 270.612C437.436 284.337 428.404 305.676 412.766 311.986C400.369 316.987 386.388 314.472 373.054 315.417C346.241 317.317 322.701 333.127 300.592 348.415C299.69 353.365 301.5 358.724 305.218 362.114C313.127 353.939 323.103 347.781 333.954 344.374C337.966 343.114 343.978 343.443 344.424 347.623C344.592 349.206 343.76 350.706 342.918 352.057C335.683 363.655 325.481 373.386 313.554 380.065C307.258 383.591 300.223 386.324 293.019 385.92C285.815 385.517 278.478 381.358 276.031 374.57C274.897 371.425 274.775 367.784 272.627 365.221C268.994 360.885 262.015 362.183 256.923 364.646C251.83 367.109 246.402 370.458 240.937 368.996C227.276 365.343 213.059 363.776 198.93 364.367C180.937 365.12 162.603 369.309 145.17 364.79C139.347 363.281 132.829 360.9 127.67 363.995C117.503 370.094 124.361 389.619 113.931 395.255C110.236 397.252 105.708 396.516 101.632 395.504C83.6196 391.033 66.7245 382.131 52.8532 369.801C51.5164 368.613 50.1391 367.278 49.7643 365.529C48.6402 360.284 56.3836 358.101 61.6598 359.072C70.6226 360.722 79.1946 364.458 86.5043 369.901C89.0667 371.808 92.9655 369.583 94.051 366.578C95.1366 363.574 94.3896 360.265 93.9659 357.099C91.29 337.099 103.837 316.072 122.709 308.93C111.283 292.256 106.938 270.892 110.944 251.08C114.95 231.268 127.253 213.27 144.259 202.345C151.052 197.98 158.858 194.411 163.187 187.595C167.517 180.779 165.617 169.344 157.696 167.773C150.234 175.855 138.095 179.274 127.512 176.274C116.928 173.274 108.389 163.995 106.277 153.198C99.252 155.571 92.2273 157.943 85.2025 160.316C91.4376 155.51 98.8215 152.207 106.559 150.76C107.302 147.542 108.044 144.324 108.787 141.107C95.383 140.242 81.7901 142.448 69.3475 147.507C77.0042 141.744 86.746 138.815 96.3115 139.401C106.041 139.997 115.931 135.237 121.534 127.261C118.028 126.028 114.878 123.803 112.543 120.912C116.119 118.971 120.449 118.468 124.374 119.538M197.97 329.387C197.331 330.008 196.645 330.746 196.69 331.635C196.735 332.524 198.069 333.188 198.529 332.426C201.041 328.265 205.41 325.273 210.198 324.435C214.985 323.597 220.11 324.927 223.886 327.987C225.204 329.055 226.38 330.331 227.885 331.112C228.427 331.393 229.354 331.401 229.377 330.791C229.384 330.59 229.269 330.408 229.157 330.242C226.445 326.246 222.391 323.178 217.807 321.655C213.79 320.32 209.135 320.236 205.542 322.474C204.237 323.287 203.124 324.369 202.023 325.441C200.672 326.756 199.321 328.072 197.97 329.387ZM178.486 322.115C173.285 321.427 167.685 323.173 164.221 327.114C163.611 327.808 163.056 328.59 162.846 329.491C162.636 330.391 162.833 331.433 163.531 332.04C166.21 327.878 170.972 325.133 175.916 324.899C180.861 324.666 185.86 326.951 188.919 330.843C189.398 331.451 189.854 332.116 190.533 332.488C191.212 332.86 192.2 332.812 192.614 332.158C193.107 331.376 192.51 330.376 191.901 329.681C188.445 325.733 183.688 322.803 178.486 322.115ZM215.176 316.79C215.095 317.669 216.257 318.217 217.092 317.929C217.927 317.641 218.48 316.872 219.04 316.188C223.689 310.501 232.544 308.788 238.979 312.329C239.823 311.616 239.872 310.249 239.307 309.3C238.742 308.35 237.71 307.767 236.658 307.431C234.378 306.702 231.903 306.95 229.557 307.425C224.006 308.548 218.397 311.18 215.479 316.035C215.338 316.269 215.201 316.517 215.176 316.79ZM193.349 335.24C191.068 335.399 188.834 336.003 186.698 336.82C183.746 337.95 180.839 339.596 179.111 342.243C181.646 342.961 184.075 341.071 186.39 339.815C191.583 336.996 198.319 337.288 203.25 340.544C204.797 341.566 206.784 342.885 208.293 341.807C204.764 337.383 198.994 334.848 193.349 335.24ZM202.724 333.814C204.455 332.912 205.838 331.448 207.555 330.519C209.919 329.24 212.864 329.093 215.344 330.129C216.691 330.691 217.884 331.571 219.211 332.179C220.538 332.786 222.118 333.102 223.441 332.483C223.587 332.415 223.739 332.324 223.801 332.175C223.902 331.932 223.723 331.669 223.55 331.471C220.591 328.094 215.955 326.264 211.488 326.71C207.02 327.156 202.838 329.866 200.605 333.761C201.071 334.375 202.041 334.17 202.724 333.814ZM168.064 333.975C168.991 333.448 169.716 332.633 170.564 331.986C172.259 330.691 174.468 330.095 176.587 330.341C178.948 330.615 181.077 331.865 183.03 333.22C183.602 333.617 184.184 334.034 184.861 334.191C185.539 334.349 186.345 334.178 186.728 333.598C187.107 333.024 186.955 332.223 186.55 331.668C186.144 331.113 185.535 330.747 184.942 330.399C182.528 328.984 179.977 327.569 177.183 327.424C173.69 327.244 170.443 329.065 167.422 330.828C166.197 331.542 164.79 332.625 165.05 334.02C165.888 334.679 167.136 334.503 168.064 333.975ZM183.795 320.435C184.426 321.251 185.661 320.376 186.357 319.615C188.501 317.272 191.592 315.821 194.765 315.669C197.938 315.517 201.154 316.665 203.513 318.792C204.108 319.328 204.735 319.962 205.536 319.984C206.337 320.005 207.059 318.888 206.423 318.399C203.022 315.787 199.065 313.651 194.786 313.369C190.506 313.087 185.894 315.007 183.913 318.811C183.647 319.32 183.444 319.98 183.795 320.435ZM221.633 319.719C222.198 319.48 222.612 318.995 223.044 318.56C226.337 315.247 231.915 314.507 235.958 316.846C236.969 317.431 238.49 318.076 239.078 317.066C239.568 316.224 238.694 315.244 237.861 314.739C232.424 311.442 224.672 312.698 220.554 317.544C220.134 318.037 219.732 318.714 220.02 319.294C220.293 319.843 221.068 319.958 221.633 319.719ZM224.639 320.031C224.405 320.226 224.172 320.445 224.074 320.733C223.799 321.538 224.777 322.292 225.625 322.224C226.474 322.157 227.194 321.612 227.964 321.249C229.84 320.364 232.094 320.575 233.999 321.397C234.752 321.723 235.482 322.143 236.293 322.265C237.105 322.387 238.051 322.118 238.421 321.385C235.194 317.386 228.583 316.736 224.639 320.031ZM173.617 318.496C174.099 318.722 174.756 318.678 175.066 318.246C175.487 317.658 175.036 316.857 174.589 316.288C173.074 314.363 171.445 312.467 169.363 311.175C167.281 309.884 164.66 309.262 162.341 310.054C162.105 310.91 163.171 311.492 164.01 311.784C167.239 312.91 170.17 314.88 172.432 317.445C172.784 317.844 173.136 318.27 173.617 318.496ZM202.155 320.645C198.344 318.214 193.142 318.172 189.292 320.539C188.623 320.951 187.935 321.529 187.883 322.313C187.831 323.097 188.895 323.824 189.423 323.242C191.55 320.898 195.437 320.411 198.077 322.159C199.372 323.018 201.234 322.9 202.412 321.887C202.968 321.828 202.627 320.945 202.155 320.645ZM229.878 333.796C224.463 333.43 219.424 336.616 215.494 340.359C215.78 341.02 216.756 340.845 217.417 340.559C221.893 338.622 226.369 336.684 230.846 334.747C231.182 334.302 230.435 333.833 229.878 333.796ZM178.341 336.207C179.007 336.585 179.659 337.098 180.425 337.099C181.19 337.1 181.949 336.178 181.464 335.586C179.935 333.722 177.531 332.607 175.12 332.644C172.71 332.681 170.342 333.869 168.87 335.779C169.052 336.473 169.901 336.793 170.611 336.689C171.321 336.585 171.947 336.185 172.605 335.9C174.426 335.111 176.615 335.228 178.341 336.207ZM205.193 335.699C205.132 336.232 205.737 336.64 206.272 336.61C206.808 336.581 207.279 336.268 207.749 336.009C209.721 334.922 212.15 334.7 214.288 335.409C215.657 335.864 217.366 336.607 218.355 335.556C218.442 334.955 217.839 334.502 217.303 334.217C215.383 333.195 213.27 332.425 211.095 332.445C208.921 332.465 206.677 333.378 205.436 335.163C205.323 335.326 205.216 335.502 205.193 335.699ZM201.152 312.301C203.39 313.103 205.475 314.331 207.261 315.9C207.998 316.547 208.702 317.264 209.596 317.668C210.489 318.071 211.648 318.082 212.347 317.395C210.801 316.208 209.53 314.664 208.663 312.918C208.196 311.977 206.952 311.805 205.903 311.753C204.37 311.678 202.837 311.603 201.304 311.528C201.142 311.746 201.085 312.038 201.152 312.301ZM181.157 317.684C181.948 316.945 182.532 316.013 183.264 315.214C184.398 313.975 185.891 313.069 187.514 312.637C188.214 312.45 189.134 312.092 189.029 311.375C187.045 311.03 184.782 310.752 183.218 312.019C181.027 313.794 179.291 316.125 178.216 318.732C179.273 318.965 180.365 318.423 181.157 317.684ZM163.526 316.786C164.948 317.712 166.369 318.639 167.79 319.565C168.392 319.957 169.16 320.358 169.785 320.003C170.364 319.673 170.453 318.824 170.151 318.23C169.849 317.636 169.273 317.238 168.72 316.866C167.563 316.087 166.406 315.308 165.248 314.528C164.279 313.876 162.7 313.356 162.173 314.398C161.719 315.297 162.682 316.236 163.526 316.786ZM193.454 327.92C193.998 328.459 194.76 329.043 195.451 328.712C195.766 328.561 195.969 328.251 196.155 327.956C196.772 326.982 197.388 326.008 198.004 325.034C196.391 323.24 193.224 323.192 191.557 324.936C191.429 325.07 191.304 325.224 191.281 325.408C191.245 325.699 191.47 325.951 191.678 326.158C192.27 326.745 192.862 327.333 193.454 327.92ZM168.581 341.846C169.737 342.251 171.101 342.371 172.121 341.692C170.586 339.927 168.787 338.392 166.803 337.154C166.24 336.803 165.605 336.463 164.948 336.557C164.291 336.65 163.71 337.397 164.028 337.979C165.004 339.767 166.659 341.172 168.581 341.846ZM232 327.658C232.546 326.998 233.093 326.338 233.639 325.678C233.827 325.45 234.026 325.194 234.014 324.899C233.999 324.525 233.656 324.255 233.33 324.072C232.195 323.433 230.854 323.167 229.561 323.322C229.067 323.382 228.552 323.516 228.204 323.873C227.856 324.23 227.756 324.863 228.106 325.217C228.899 326.021 229.692 326.824 230.485 327.628C230.744 327.89 231.073 328.175 231.433 328.097C231.671 328.045 231.845 327.846 232 327.658ZM174.998 313.397C175.488 313.925 176.103 314.465 176.821 314.406C178.359 314.278 178.856 311.623 180.393 311.769C180.805 311.089 179.679 310.544 178.884 310.532C176.825 310.499 174.766 310.467 172.707 310.434C173.379 311.488 174.147 312.481 174.998 313.397ZM187.712 342.333C191.994 342.315 196.277 342.296 200.559 342.277C200.184 341.431 199.179 341.087 198.273 340.899C195.301 340.283 192.185 340.377 189.256 341.171C188.6 341.349 187.851 341.668 187.712 342.333ZM214.154 337.827C212.737 337.891 211.32 337.955 209.903 338.019C209.446 338.04 208.859 338.172 208.802 338.627C208.777 338.83 208.879 339.025 208.978 339.204C209.352 339.884 209.751 340.592 210.399 341.02C211.047 341.449 212.022 341.491 212.526 340.9C212.912 340.447 212.943 339.74 213.403 339.363C213.7 339.12 214.112 339.072 214.44 338.873C214.768 338.674 214.977 338.159 214.673 337.925C214.53 337.816 214.334 337.819 214.154 337.827ZM177.466 340.197C177.844 339.606 177.486 338.77 176.896 338.39C176.306 338.01 175.569 337.965 174.868 337.93C174.094 337.891 173.075 338.034 172.936 338.796C172.87 339.16 173.055 339.516 173.234 339.839C173.759 340.787 174.532 341.874 175.61 341.767C176.446 341.684 177.012 340.905 177.466 340.197ZM233.439 331.7C234.075 331.752 234.645 331.321 235.091 330.865C236.452 329.474 237.317 327.608 237.5 325.67C237.05 325.383 236.499 325.829 236.154 326.237C234.995 327.607 233.837 328.977 232.678 330.347C232.266 330.834 232.803 331.647 233.439 331.7ZM162.559 321.994C163.205 322.802 164.452 323.056 165.362 322.564C165.829 322.312 166.222 321.812 166.129 321.29C166.047 320.825 165.624 320.51 165.234 320.244C164.671 319.86 164.107 319.476 163.544 319.092C163.372 318.975 163.174 318.852 162.97 318.894C162.829 318.923 162.716 319.026 162.622 319.134C161.941 319.914 161.913 321.185 162.559 321.994ZM212.6 313.459C213.277 314.027 214.28 313.44 214.951 312.867C215.68 312.244 216.408 311.621 217.137 310.999C216.724 310.605 216.065 310.694 215.507 310.809C213.885 311.145 212.262 311.48 210.64 311.815C211.294 312.363 211.947 312.911 212.6 313.459ZM238.075 305.501C238.483 306.01 239.343 305.901 239.811 305.446C240.28 304.992 240.453 304.321 240.587 303.682C240.619 303.529 240.649 303.363 240.585 303.22C240.421 302.856 239.882 302.966 239.52 303.135C238.548 303.588 237.403 304.665 238.075 305.501Z" fill="white"/>
<path fill-rule="evenodd" clip-rule="evenodd" d="M110.944 251.08C114.95 231.268 128.646 214.683 145.652 203.758C137.054 215.544 110.668 234.873 119.149 256.408C132.705 290.83 185.443 296.244 183.608 296.618C152.416 302.978 107.962 265.831 110.944 251.08Z" fill="#E7EAEE"/>
<path fill-rule="evenodd" clip-rule="evenodd" d="M210.717 79.1528C208.547 79.416 206.635 81.1538 206.167 83.2888C223.732 73.8446 244.948 71.4166 264.193 76.6482C264.21 86.3537 257.401 95.6886 248.155 98.6384L228.109 105.034C233.397 105.62 238.831 104.845 243.744 102.802C245.489 105.553 248.365 107.561 251.548 108.254L245.386 109.605C246.294 112.373 248.149 114.821 250.568 116.444C248.515 115.741 246.231 115.734 244.173 116.424L245.553 121.434C236.467 120.174 226.759 121.411 219.106 126.468C211.453 131.526 206.314 140.822 207.693 149.891C209.307 140.031 216.064 131.161 225.14 126.985C234.217 122.81 245.349 123.451 253.886 128.641L248.095 132.931C250.319 133.815 252.955 133.589 254.996 132.339C259.453 134.311 258.219 142.466 253.378 143.031L259.781 143.477C260.892 154.366 254.165 165.595 244.04 169.755C233.915 173.914 221.237 170.657 214.371 162.132C205.849 166.484 206.446 179.675 212.52 187.07C216.76 192.232 222.599 195.585 228.448 198.944L228.448 198.945C230.978 200.397 233.509 201.851 235.914 203.453C248.688 211.961 258.21 225.23 262.182 240.055C255.245 244.7 249.075 250.487 243.995 257.111C251.511 256.76 258.871 253.695 264.414 248.606L265.597 260.054C259.512 261.928 254.045 265.753 250.199 270.826C255.622 271.379 261.214 270.112 265.869 267.277C264.202 280.449 261.192 293.451 256.902 306.017L242.917 305.903C246.235 296.733 249.596 286.867 247.151 277.427C244.707 267.987 233.742 260.194 225.112 264.735C235.038 256.735 242.554 245.784 246.449 233.645L221.455 265.908L202.275 266.07C201.672 257.033 201.092 247.771 203.661 239.086C206.23 230.401 212.644 222.271 221.482 220.291C222.441 220.076 223.461 219.901 224.496 219.724C228.815 218.984 233.37 218.204 234.638 214.3C220.311 213.467 205.951 222.638 200.681 235.986C196.926 245.498 197.588 256.1 198.307 266.301C185.062 264.391 171.501 264.698 158.356 267.205C156.074 259.427 153.708 251.474 148.921 244.932C144.135 238.39 136.364 233.429 128.298 234.236C141.288 236.167 147.723 250.601 152.621 262.786C157.519 274.97 166.411 288.888 179.487 287.682C183.212 287.339 184.397 293.457 181.543 295.873C178.689 298.29 174.448 297.83 170.794 297.03C151.974 292.912 134.403 283.248 120.846 269.56C118.206 266.895 115.653 263.978 114.434 260.431C112.929 256.054 113.63 251.221 114.924 246.777C121.535 224.076 141.879 208.522 161.213 194.912C171.615 187.59 171.242 169.444 160.548 162.556C152.632 169.75 142.077 174.78 131.445 173.606C120.813 172.432 110.751 163.727 110.408 153.037C113.747 152.742 117.02 151.717 119.931 150.054C117.074 149.039 113.854 149.082 111.026 150.174C110.257 147.293 110.818 144.084 112.521 141.636L118.582 140.988C117.364 139.61 115.664 138.666 113.85 138.361C118.225 131.071 128.378 129.076 136.515 131.539C144.652 134.002 151.242 139.871 157.547 145.574C150.973 131.161 133.147 126.515 117.582 123.561L124.374 119.538C120.449 118.468 116.119 118.971 112.543 120.912C114.878 123.803 118.028 126.028 121.534 127.261C115.931 135.237 106.041 139.997 96.3115 139.401C86.746 138.815 77.0042 141.744 69.3475 147.507C81.7901 142.448 95.383 140.242 108.787 141.107L106.559 150.76C98.8215 152.207 91.4376 155.51 85.2025 160.316L106.277 153.198C108.389 163.995 116.928 173.274 127.512 176.274C138.095 179.274 150.234 175.855 157.696 167.773C165.617 169.344 167.517 180.779 163.187 187.595C159.759 192.992 154.152 196.353 148.593 199.686L148.593 199.686L148.593 199.686L148.592 199.686L148.592 199.686C147.131 200.562 145.673 201.436 144.259 202.345C127.253 213.27 114.95 231.268 110.944 251.08C106.938 270.892 111.283 292.256 122.709 308.93C103.837 316.072 91.29 337.099 93.9659 357.099C94.0272 357.556 94.0952 358.017 94.1634 358.48L94.1635 358.48L94.1636 358.48C94.5674 361.216 94.9795 364.008 94.051 366.578C92.9655 369.583 89.0667 371.808 86.5043 369.901C79.1946 364.458 70.6226 360.722 61.6598 359.072C56.3836 358.101 48.6402 360.284 49.7643 365.529C50.1391 367.278 51.5164 368.613 52.8532 369.801C66.7245 382.131 83.6196 391.033 101.632 395.504C105.708 396.516 110.236 397.252 113.931 395.255C119.191 392.413 120.054 386.039 120.921 379.635C121.774 373.341 122.631 367.019 127.67 363.995C132.222 361.265 137.83 362.796 143.086 364.231L143.087 364.231L143.088 364.231L143.089 364.232L143.09 364.232L143.091 364.232C143.791 364.423 144.486 364.613 145.17 364.79C157.669 368.03 170.631 366.794 183.599 365.557C188.718 365.069 193.837 364.58 198.93 364.367C213.059 363.776 227.276 365.343 240.937 368.996C245.695 370.269 250.426 367.895 254.931 365.634C255.6 365.298 256.264 364.965 256.923 364.646C262.015 362.183 268.994 360.885 272.627 365.221C274.064 366.935 274.594 369.132 275.128 371.341L275.128 371.341C275.391 372.434 275.656 373.529 276.031 374.57C278.478 381.358 285.815 385.517 293.019 385.92C300.223 386.324 307.258 383.591 313.554 380.065C325.481 373.386 335.683 363.655 342.918 352.057C343.76 350.706 344.592 349.206 344.424 347.623C343.978 343.443 337.966 343.114 333.954 344.374C323.103 347.781 313.127 353.939 305.218 362.114C301.5 358.724 299.69 353.365 300.592 348.415C322.701 333.127 346.241 317.317 373.054 315.417C377.258 315.119 381.526 315.165 385.789 315.211C395.046 315.311 404.278 315.41 412.766 311.986C428.404 305.676 437.436 284.337 427.639 270.612C420.102 260.052 405.366 257.561 392.444 258.718C370.604 260.674 349.582 270.73 334.354 286.506C330.125 290.887 326.266 295.736 322.415 300.577L322.415 300.577L322.414 300.577L322.414 300.578L322.414 300.578L322.413 300.578L322.413 300.579L322.413 300.579L322.413 300.579L322.412 300.58L322.412 300.58L322.412 300.58L322.412 300.58L322.411 300.581L322.411 300.581L322.411 300.581L322.41 300.582L322.41 300.582L322.41 300.582L322.41 300.583L322.409 300.583L322.409 300.583L322.409 300.584L322.409 300.584L322.408 300.584C314.069 311.063 305.764 321.501 293.81 327.062C285.695 315.837 272.976 308.048 259.289 305.92C269.441 287.188 272.069 264.512 266.471 243.954C260.873 223.397 247.109 205.184 228.861 194.186C227.873 193.591 226.866 193.011 225.857 192.429L225.857 192.429L225.856 192.428L225.855 192.428L225.855 192.428L225.854 192.427L225.854 192.427L225.853 192.427L225.852 192.426L225.852 192.426L225.851 192.426L225.851 192.425L225.85 192.425L225.849 192.425L225.849 192.424L225.848 192.424L225.848 192.424L225.847 192.423L225.846 192.423L225.846 192.423L225.845 192.422L225.845 192.422L225.844 192.421L225.843 192.421L225.843 192.421L225.842 192.42L225.842 192.42L225.841 192.42L225.84 192.419L225.84 192.419L225.839 192.419L225.839 192.418L225.838 192.418L225.838 192.418L225.837 192.417C221.242 189.768 216.601 187.093 213.469 182.875C209.646 177.725 209.266 169.265 214.629 165.745C221.76 175.531 236.725 177.644 247.307 171.761C257.89 165.878 263.917 153.532 264.13 141.426L291.505 140.729C282.303 137.651 272.251 137.159 262.792 139.323L259.512 130.392L281.233 127.545C273.219 125.526 264.631 125.848 256.791 128.46C255.009 124.971 252.293 121.964 249.001 119.839C252.092 120.19 255.301 119.362 257.837 117.562L250.71 111.89C253.663 112.433 256.867 110.497 257.761 107.632L246.354 103.018L291.381 81.4711C289.462 81.4373 287.542 81.5079 285.631 81.6825L291.451 77.8339C282.565 78.9081 273.799 76.4067 265.045 73.9084C255.984 71.3223 246.933 68.7395 237.773 70.1294C234.174 70.6755 230.552 71.8204 226.951 72.9589C219.519 75.3083 212.175 77.6301 205.299 74.6028C191.309 68.443 174.903 67.9918 160.596 73.3734C159.331 73.8493 158.046 74.3693 156.748 74.8943C149.605 77.7839 142.079 80.8285 135.406 77.5394C127.376 73.5811 117.638 75.8962 109.586 79.8108C106.76 81.185 104.017 82.7482 101.276 84.3101L101.276 84.3101C96.2091 87.1975 91.1499 90.0804 85.5871 91.7566C98.1408 99.4507 112.357 104.416 126.972 106.211C128.767 107.598 128.14 110.681 126.349 112.074C124.558 113.466 122.137 113.643 119.872 113.764C120.455 117.8 125.655 120.356 129.207 118.352C127.714 118.63 127.603 116.205 128.223 114.819L132.092 106.172C135.097 107.276 138.837 105.505 139.888 102.482C132.447 103.377 124.726 104.249 117.597 101.934C110.468 99.6185 104.099 93.16 104.433 85.6721C120.308 76.4742 141.62 77.7197 156.316 88.7041C155.181 85.3924 152.392 82.6946 149.044 81.6706C152.909 77.8655 158.04 75.3683 163.419 74.6741C160.223 77.2024 158.759 81.7226 159.865 85.6446L174.213 72.4481C171.859 76.6676 170.541 81.4597 170.405 86.2894C175.726 82.812 179.966 77.7035 182.403 71.8323L188.785 72.7285C184.878 76.03 182.701 81.2761 183.123 86.3743C187.986 83.3507 191.757 78.6085 193.607 73.1888C199.6 74.1571 205.42 76.1858 210.717 79.1528ZM387.027 312.765C383.818 312.659 380.607 312.553 377.415 312.643C353.653 313.318 331.562 324.892 311.956 338.335C311.809 338.435 311.662 338.536 311.515 338.637L311.131 338.902L311.131 338.902C307.41 341.461 303.653 344.044 299.406 345.554L294.417 331.012C294.149 330.232 293.984 329.16 294.71 328.767C302.339 324.642 309.305 319.294 315.262 312.989C319.231 308.789 322.751 304.173 326.267 299.563L326.267 299.562C331.247 293.033 336.218 286.515 342.443 281.203C352.383 272.719 364.897 267.864 377.454 264.243C386.747 261.563 396.484 259.46 406.042 260.932C415.601 262.404 425.012 268.109 428.517 277.123C431.301 284.282 429.939 292.727 425.65 299.099C421.361 305.471 414.397 309.808 406.934 311.627C400.444 313.209 393.741 312.988 387.027 312.765ZM113.623 343.57C114.125 344.765 114.442 346.36 113.439 347.181C112.147 348.239 110.315 346.876 109.229 345.607L99.9764 334.795C97.7613 340.553 96.745 346.769 97.0112 352.933C97.0646 354.171 97.1654 355.426 97.2666 356.686C97.6533 361.501 98.0452 366.379 95.8153 370.554C94.8373 372.386 93.1729 374.067 91.1011 374.201C89.9268 374.277 88.7833 373.848 87.6995 373.389C84.7288 372.133 81.8017 370.589 78.8754 369.046C71.3431 365.073 63.8165 361.102 55.5683 362.05C54.442 362.179 53.0393 362.735 53.0833 363.868C53.103 364.375 53.4339 364.811 53.7558 365.204C65.6476 379.727 84.244 386.77 102.246 392.087C105.19 392.957 108.293 393.804 111.291 393.143C114.289 392.483 117.072 389.78 116.71 386.731C115.752 378.666 118.279 370.246 123.52 364.041C125.612 361.564 128.258 359.359 131.433 358.7C135.332 357.89 139.144 359.496 142.897 361.078C143.861 361.485 144.822 361.89 145.779 362.252C153.116 365.026 161.363 365.328 168.884 363.1C165.943 363.061 164.531 359.536 163.922 356.659C159.974 338.023 157.875 318.995 157.666 299.945C157.643 297.874 156.19 296.043 154.437 294.938C152.954 294.004 151.262 293.484 149.58 292.967C149.275 292.873 148.971 292.779 148.668 292.683C142.542 290.743 136.771 287.692 131.717 283.725C131.08 283.225 130.453 282.709 129.826 282.193C127.891 280.604 125.956 279.013 123.735 277.873C120.794 276.365 117.155 275.749 114.208 277.245C113.55 278.812 114.739 280.632 116.26 281.389C117.412 281.962 118.703 282.117 119.991 282.272C120.404 282.322 120.816 282.371 121.223 282.435C123.16 282.736 125.046 283.367 126.774 284.292C128.589 285.264 130.308 287.831 128.691 289.105C128.027 289.628 127.097 289.591 126.255 289.529L116.754 288.831C119.07 295.132 122.023 301.199 125.553 306.91C125.87 307.422 126.293 307.992 126.896 307.998C136.204 308.081 146.598 309.384 152.496 316.585C153.614 317.95 154.531 319.923 153.573 321.404C148.166 314.875 139.708 310.987 131.233 311.133C122.757 311.279 114.439 315.457 109.26 322.169C113.831 325.228 117.464 329.668 119.559 334.753C120.191 336.289 120.075 338.801 118.414 338.766L108.441 326.555C107.995 326.009 107.46 325.417 106.756 325.395C106.191 325.378 105.693 325.739 105.245 326.084C104.275 326.829 103.268 327.619 102.762 328.733C102.256 329.847 102.444 331.379 103.499 331.999C107.995 334.64 111.603 338.763 113.623 343.57ZM227.325 362.68C233.73 357.337 235.819 348.54 237.539 340.379L243.841 310.474C243.909 310.154 243.986 309.815 244.216 309.583C244.519 309.277 244.995 309.244 245.426 309.231C256.914 308.884 269.145 309.978 278.398 316.796C274.622 318.667 271.322 321.489 268.886 324.927C268.202 325.892 267.631 327.343 268.511 328.133C268.841 328.429 269.301 328.534 269.743 328.565C271.949 328.722 273.963 327.345 275.575 325.831C275.923 325.504 276.264 325.167 276.606 324.829C277.849 323.599 279.097 322.364 280.674 321.642C282.685 320.722 285.478 320.98 286.587 322.893C283.001 324.719 280.047 327.758 278.321 331.393C277.872 332.34 277.501 333.434 277.865 334.417C278.229 335.399 279.66 335.975 280.364 335.199L287.292 327.551C287.627 327.181 288.092 326.775 288.561 326.946C288.814 327.038 288.979 327.278 289.124 327.505C292.796 333.266 294.255 339.974 295.721 346.712C296.579 350.657 297.439 354.612 298.747 358.392C299.795 361.421 301.818 364.824 305.024 364.826C306.795 364.827 308.362 363.738 309.764 362.655C311.263 361.498 312.754 360.285 314.253 359.065C321.298 353.332 328.504 347.468 337.377 346.766C338.776 346.655 340.57 346.963 340.899 348.328C341.089 349.12 340.663 349.917 340.238 350.613C333.642 361.408 323.75 369.92 312.821 376.292C307.225 379.554 301.089 382.355 294.612 382.405C288.136 382.456 281.277 379.144 278.83 373.147C278.331 371.924 278.025 370.633 277.72 369.343C277.367 367.85 277.015 366.36 276.363 364.977C274.684 361.415 270.962 358.908 267.029 358.69C263.285 358.483 259.842 360.151 256.407 361.815C255.2 362.4 253.994 362.984 252.776 363.486C244.691 366.821 235.184 366.52 227.325 362.68ZM184.573 298.298C182.162 300.355 178.919 301.177 175.759 301.409C170.064 301.826 164.253 300.493 159.31 297.635L161.349 305.355C161.437 305.688 161.542 306.046 161.818 306.251C162.058 306.429 162.376 306.451 162.674 306.467L191.981 308.007C196.253 308.232 200.531 308.456 204.808 308.333C216.803 307.986 228.709 304.855 239.322 299.255C239.935 298.932 240.558 298.588 240.999 298.054C241.525 297.418 241.733 296.584 241.908 295.778C243.395 288.96 243.652 281.875 242.664 274.967C242.421 273.27 242.083 271.53 241.129 270.106C240.175 268.681 238.459 267.64 236.775 267.961C219.528 271.245 201.923 270.231 184.318 269.216L184.317 269.216C177.683 268.834 171.048 268.452 164.433 268.3C163.252 268.272 162.01 268.267 160.973 268.832C159.935 269.397 159.221 270.738 159.754 271.793C162.77 277.761 169.003 281.569 175.466 283.287C175.93 283.411 176.405 283.531 176.886 283.654C181.066 284.717 185.67 285.888 187.188 289.779C188.339 292.732 186.984 296.241 184.573 298.298ZM231.592 348.88C230.41 353.574 227.925 358.443 223.416 360.204C221.839 360.819 220.131 361.003 218.444 361.16C202.811 362.614 187.011 362.264 171.458 360.117C170.532 359.99 169.556 359.834 168.834 359.24C167.955 358.516 167.657 357.319 167.426 356.204C166.72 352.786 166.173 349.335 165.787 345.867C165.719 345.253 165.889 344.376 166.505 344.424C176.458 345.198 186.439 345.605 196.421 345.643C203.307 345.67 210.248 345.514 216.973 344.035C223.698 342.556 230.255 339.665 235.172 334.844C233.774 337.779 233.173 340.986 232.57 344.197C232.276 345.767 231.981 347.338 231.592 348.88ZM197.97 329.387C197.331 330.008 196.645 330.746 196.69 331.635C196.735 332.524 198.069 333.188 198.529 332.426C201.041 328.265 205.41 325.273 210.198 324.435C214.985 323.597 220.11 324.927 223.886 327.987C224.278 328.304 224.656 328.64 225.035 328.975L225.035 328.976L225.036 328.976L225.036 328.976L225.037 328.977L225.037 328.977L225.038 328.978L225.038 328.978L225.038 328.978C225.933 329.771 226.828 330.564 227.885 331.112C228.427 331.393 229.354 331.401 229.377 330.791C229.384 330.59 229.269 330.408 229.157 330.242C226.445 326.246 222.391 323.178 217.807 321.655C213.79 320.32 209.135 320.236 205.542 322.474C204.237 323.287 203.124 324.369 202.023 325.441L197.97 329.387ZM164.221 327.114C167.685 323.173 173.285 321.427 178.486 322.115C183.688 322.803 188.445 325.733 191.901 329.681C192.51 330.376 193.107 331.376 192.614 332.158C192.2 332.812 191.212 332.86 190.533 332.488C189.941 332.164 189.518 331.616 189.102 331.078L189.1 331.075C189.04 330.997 188.98 330.919 188.919 330.843C185.86 326.951 180.861 324.666 175.916 324.899C170.972 325.133 166.21 327.878 163.531 332.04C162.833 331.433 162.636 330.391 162.846 329.491C163.056 328.59 163.611 327.808 164.221 327.114ZM215.176 316.79C215.095 317.669 216.257 318.217 217.092 317.929C217.843 317.67 218.367 317.021 218.872 316.395L218.942 316.309L218.983 316.257L219.04 316.188C223.689 310.501 232.544 308.788 238.979 312.329C239.823 311.616 239.872 310.249 239.307 309.3C238.742 308.35 237.71 307.767 236.658 307.431C234.378 306.702 231.903 306.95 229.557 307.425C224.006 308.548 218.397 311.18 215.479 316.035C215.338 316.269 215.201 316.517 215.176 316.79ZM186.698 336.82C188.834 336.003 191.068 335.399 193.349 335.24C198.994 334.848 204.764 337.383 208.293 341.807C206.789 342.881 204.81 341.574 203.265 340.554L203.25 340.544C198.319 337.288 191.583 336.996 186.39 339.815C185.985 340.035 185.576 340.274 185.164 340.515C183.221 341.653 181.202 342.835 179.111 342.243C180.839 339.596 183.746 337.95 186.698 336.82ZM202.724 333.814C203.609 333.353 204.404 332.744 205.198 332.136C205.957 331.554 206.716 330.973 207.555 330.519C209.919 329.24 212.864 329.093 215.344 330.129C216.068 330.431 216.747 330.825 217.426 331.219C218.011 331.558 218.597 331.898 219.211 332.179C220.538 332.786 222.118 333.102 223.441 332.483C223.587 332.415 223.739 332.324 223.801 332.175C223.902 331.932 223.723 331.669 223.55 331.471C220.591 328.094 215.955 326.264 211.488 326.71C207.02 327.156 202.838 329.866 200.605 333.761C201.071 334.375 202.041 334.17 202.724 333.814ZM169.653 332.753C169.149 333.199 168.646 333.644 168.064 333.975C167.136 334.503 165.888 334.679 165.05 334.02C164.79 332.625 166.197 331.542 167.422 330.828C170.443 329.065 173.69 327.244 177.183 327.424C179.977 327.569 182.528 328.984 184.942 330.399C185.535 330.747 186.144 331.113 186.55 331.668C186.955 332.223 187.107 333.024 186.728 333.598C186.345 334.178 185.539 334.349 184.861 334.191C184.209 334.04 183.645 333.648 183.094 333.265L183.03 333.22C181.077 331.865 178.948 330.615 176.587 330.341C174.468 330.095 172.259 330.691 170.564 331.986C170.249 332.226 169.951 332.49 169.654 332.753L169.653 332.753L169.653 332.753ZM183.795 320.435C184.426 321.251 185.661 320.376 186.357 319.615C188.501 317.272 191.592 315.821 194.765 315.669C197.938 315.517 201.154 316.665 203.513 318.792C203.561 318.835 203.609 318.879 203.658 318.923C204.21 319.426 204.8 319.964 205.536 319.984C206.337 320.005 207.059 318.888 206.423 318.399C203.022 315.787 199.065 313.651 194.786 313.369C190.506 313.087 185.894 315.007 183.913 318.811C183.647 319.32 183.444 319.98 183.795 320.435ZM222.853 318.755L222.853 318.755C222.486 319.133 222.114 319.516 221.633 319.719C221.068 319.958 220.293 319.843 220.02 319.294C219.732 318.714 220.134 318.037 220.554 317.544C224.672 312.698 232.424 311.442 237.861 314.739C238.694 315.244 239.568 316.224 239.078 317.066C238.49 318.076 236.969 317.431 235.958 316.846C231.915 314.507 226.337 315.247 223.044 318.56C222.98 318.624 222.917 318.69 222.853 318.755ZM224.639 320.031C224.405 320.226 224.172 320.445 224.074 320.733C223.799 321.538 224.777 322.292 225.625 322.224C226.239 322.175 226.786 321.876 227.334 321.577C227.543 321.463 227.751 321.349 227.964 321.249C229.84 320.364 232.094 320.575 233.999 321.397C234.179 321.475 234.358 321.559 234.537 321.642C235.106 321.907 235.676 322.172 236.293 322.265C237.105 322.387 238.051 322.118 238.421 321.385C235.194 317.386 228.583 316.736 224.639 320.031ZM175.066 318.246C174.756 318.678 174.099 318.722 173.617 318.496C173.17 318.286 172.834 317.904 172.507 317.531L172.432 317.445C170.17 314.88 167.239 312.91 164.01 311.784C163.171 311.492 162.105 310.91 162.341 310.054C164.66 309.262 167.281 309.884 169.363 311.175C171.445 312.467 173.074 314.363 174.589 316.288C175.036 316.857 175.487 317.658 175.066 318.246ZM202.155 320.645C198.344 318.214 193.142 318.172 189.292 320.539C188.623 320.951 187.935 321.529 187.883 322.313C187.831 323.097 188.895 323.824 189.423 323.242C191.55 320.898 195.437 320.411 198.077 322.159C199.372 323.018 201.234 322.9 202.412 321.887C202.968 321.828 202.627 320.945 202.155 320.645ZM215.494 340.359C219.424 336.616 224.463 333.43 229.878 333.796C230.435 333.833 231.182 334.302 230.846 334.747L217.417 340.559C216.756 340.845 215.78 341.02 215.494 340.359ZM178.409 336.247L178.446 336.268L178.486 336.292L178.559 336.335C178.618 336.371 178.677 336.407 178.737 336.443C179.27 336.769 179.811 337.099 180.425 337.099C181.19 337.1 181.949 336.178 181.464 335.586C179.935 333.722 177.531 332.607 175.12 332.644C172.71 332.681 170.342 333.869 168.87 335.779C169.052 336.473 169.901 336.793 170.611 336.689C171.123 336.614 171.591 336.386 172.059 336.157C172.24 336.068 172.421 335.98 172.605 335.9C174.426 335.111 176.615 335.228 178.341 336.207C178.364 336.22 178.387 336.234 178.409 336.247ZM206.272 336.61C205.737 336.64 205.132 336.232 205.193 335.699C205.216 335.502 205.323 335.326 205.436 335.163C206.677 333.378 208.921 332.465 211.095 332.445C213.27 332.425 215.383 333.195 217.303 334.217C217.839 334.502 218.442 334.955 218.355 335.556C217.465 336.502 215.992 335.995 214.707 335.552L214.705 335.551C214.563 335.502 214.424 335.454 214.288 335.409C212.15 334.7 209.721 334.922 207.749 336.009C207.681 336.046 207.613 336.085 207.545 336.123C207.141 336.352 206.731 336.585 206.272 336.61ZM201.152 312.301C203.39 313.103 205.475 314.331 207.261 315.9C207.298 315.933 207.335 315.966 207.372 315.998C207.459 316.076 207.546 316.154 207.633 316.233C208.241 316.781 208.853 317.332 209.596 317.668C210.489 318.071 211.648 318.082 212.347 317.395C210.801 316.208 209.53 314.664 208.663 312.918C208.196 311.977 206.952 311.805 205.903 311.753L201.304 311.528C201.142 311.746 201.085 312.038 201.152 312.301ZM182.409 316.247C182.015 316.749 181.622 317.25 181.157 317.684C180.365 318.423 179.273 318.965 178.216 318.732C179.291 316.125 181.027 313.794 183.218 312.019C184.782 310.752 187.045 311.03 189.029 311.375C189.134 312.092 188.214 312.45 187.514 312.637C185.891 313.069 184.398 313.975 183.264 315.214C182.962 315.543 182.686 315.895 182.409 316.247ZM163.526 316.786L167.79 319.565C168.392 319.957 169.16 320.358 169.785 320.003C170.364 319.673 170.453 318.824 170.151 318.23C169.849 317.636 169.273 317.238 168.72 316.866L165.248 314.528C164.279 313.876 162.7 313.356 162.173 314.398C161.719 315.297 162.682 316.236 163.526 316.786ZM195.451 328.712C194.76 329.043 193.998 328.459 193.454 327.92L191.678 326.158C191.47 325.951 191.245 325.699 191.281 325.408C191.304 325.224 191.429 325.07 191.557 324.936C193.224 323.192 196.391 323.24 198.004 325.034L196.155 327.956C195.969 328.251 195.766 328.561 195.451 328.712ZM168.581 341.846C169.737 342.251 171.101 342.371 172.121 341.692C170.586 339.927 168.787 338.392 166.803 337.154C166.24 336.803 165.605 336.463 164.948 336.557C164.291 336.65 163.71 337.397 164.028 337.979C165.004 339.767 166.659 341.172 168.581 341.846ZM233.639 325.678L232 327.658C231.845 327.846 231.671 328.045 231.433 328.097C231.073 328.175 230.744 327.89 230.485 327.628L228.106 325.217C227.756 324.863 227.856 324.23 228.204 323.873C228.552 323.516 229.067 323.382 229.561 323.322C230.854 323.167 232.195 323.433 233.33 324.072C233.656 324.255 233.999 324.525 234.014 324.899C234.026 325.194 233.827 325.45 233.639 325.678ZM174.998 313.397C175.488 313.925 176.103 314.465 176.821 314.406C177.564 314.344 178.064 313.693 178.556 313.052C179.082 312.367 179.598 311.694 180.393 311.769C180.805 311.089 179.679 310.544 178.884 310.532L172.707 310.434C173.379 311.488 174.147 312.481 174.998 313.397ZM200.559 342.277L187.712 342.333C187.851 341.668 188.6 341.349 189.256 341.171C192.185 340.377 195.301 340.283 198.273 340.899C199.179 341.087 200.184 341.431 200.559 342.277ZM214.154 337.827L209.903 338.019C209.446 338.04 208.859 338.172 208.802 338.627C208.777 338.83 208.879 339.025 208.978 339.204C209.352 339.884 209.751 340.592 210.399 341.02C211.047 341.449 212.022 341.491 212.526 340.9C212.699 340.697 212.801 340.442 212.902 340.19C213.026 339.879 213.149 339.571 213.403 339.363C213.571 339.225 213.777 339.15 213.983 339.075C214.14 339.017 214.298 338.959 214.44 338.873C214.768 338.674 214.977 338.159 214.673 337.925C214.53 337.816 214.334 337.819 214.154 337.827ZM176.896 338.39C177.486 338.77 177.844 339.606 177.466 340.197C177.012 340.905 176.446 341.684 175.61 341.767C174.532 341.874 173.759 340.787 173.234 339.839C173.055 339.516 172.87 339.16 172.936 338.796C173.075 338.034 174.094 337.891 174.868 337.93C175.569 337.965 176.306 338.01 176.896 338.39ZM233.439 331.7C234.075 331.752 234.645 331.321 235.091 330.865C236.452 329.474 237.317 327.608 237.5 325.67C237.05 325.383 236.499 325.829 236.154 326.237L232.678 330.347C232.266 330.834 232.803 331.647 233.439 331.7ZM165.362 322.564C164.452 323.056 163.205 322.802 162.559 321.994C161.913 321.185 161.941 319.914 162.622 319.134C162.716 319.026 162.829 318.923 162.97 318.894C163.174 318.852 163.372 318.975 163.544 319.092L165.234 320.244C165.624 320.51 166.047 320.825 166.129 321.29C166.222 321.812 165.829 322.312 165.362 322.564ZM212.6 313.459C213.277 314.027 214.28 313.44 214.951 312.867L217.137 310.999C216.724 310.605 216.065 310.694 215.507 310.809L210.64 311.815L212.6 313.459ZM114.211 270.654C113.714 270.212 113.587 269.49 113.572 268.825C113.555 268.075 113.643 267.322 113.833 266.596L117.058 270.796C117.251 271.046 117.409 271.477 117.124 271.615C116.721 271.344 116.225 271.267 115.733 271.191C115.175 271.105 114.622 271.019 114.211 270.654ZM238.075 305.501C238.483 306.01 239.343 305.901 239.811 305.446C240.28 304.992 240.453 304.321 240.587 303.682C240.619 303.529 240.649 303.363 240.585 303.22C240.421 302.856 239.882 302.966 239.52 303.135C238.548 303.588 237.403 304.665 238.075 305.501ZM201.571 119.833C201.966 118.847 202.885 118.181 203.79 117.625C206.521 115.947 209.554 114.763 212.699 114.145C213.452 113.997 214.349 113.925 214.871 114.487C215.459 115.118 215.165 116.211 214.512 116.776C213.931 117.279 213.166 117.485 212.418 117.687C212.327 117.712 212.235 117.736 212.145 117.761C209.629 118.458 207.263 119.688 205.247 121.346C204.473 121.983 203.554 122.734 202.587 122.466C201.564 122.181 201.177 120.819 201.571 119.833ZM144.998 120.063C144.268 119.668 143.775 118.681 144.229 117.986C144.493 117.582 144.986 117.398 145.454 117.279C149.246 116.317 153.172 118.016 156.602 119.898C157.374 120.321 158.169 120.783 158.655 121.517C159.142 122.251 159.213 123.338 158.578 123.948C157.515 124.97 155.83 123.919 154.63 123.063C152.529 121.564 150.004 120.665 147.428 120.5C147.313 120.493 147.197 120.487 147.081 120.481C146.36 120.442 145.627 120.403 144.998 120.063ZM184.75 174.43L182.255 167.316C180.035 168.918 178.376 171.282 177.622 173.914C176.941 173.359 176.916 172.422 176.891 171.502C176.884 171.227 176.876 170.953 176.851 170.692C176.704 169.141 175.73 167.693 174.349 166.972C172.968 166.251 171.224 166.279 169.867 167.045C170.227 167.832 171.075 168.082 171.948 168.34C172.527 168.511 173.118 168.685 173.584 169.022C174.568 169.733 174.85 171.074 174.865 172.289C174.869 172.593 174.861 172.9 174.853 173.207C174.83 174.124 174.806 175.043 175.093 175.907C175.186 176.186 175.317 176.464 175.543 176.652C176.182 177.184 177.151 176.742 177.799 176.22C179.263 175.039 180.414 173.475 181.105 171.726C181.714 172.335 181.939 173.19 182.163 174.038L182.163 174.038L182.163 174.038C182.228 174.287 182.294 174.536 182.369 174.777C182.699 175.841 183.489 176.979 184.602 176.927C185.343 176.893 185.941 176.334 186.466 175.81L189.484 172.795C189.848 172.432 190.242 171.97 190.125 171.469C190.013 170.989 189.443 170.731 188.955 170.8C188.466 170.869 188.048 171.177 187.666 171.489C186.594 172.364 185.615 173.351 184.75 174.43ZM177.856 145.894C178.017 144.59 178.105 143.071 177.148 142.172C175.36 140.495 173.795 138.581 172.505 136.496C171.942 135.587 171.414 134.525 171.682 133.49C172.087 131.927 173.987 131.362 175.59 131.167C178.155 130.854 180.751 130.801 183.326 131.009C184.432 131.098 185.605 131.264 186.452 131.982C187.299 132.699 187.604 134.155 186.787 134.906C182.781 138.589 180.435 144.014 180.495 149.456C181.981 150.42 183.491 151.396 185.183 151.918C186.876 152.439 188.805 152.456 190.331 151.558C190.974 151.18 191.514 150.663 192.054 150.145L192.054 150.144C192.427 149.787 192.801 149.428 193.209 149.115C194.21 148.348 195.642 147.872 196.714 148.536L192.635 152.291C191.01 153.788 188.991 155.397 186.84 154.894C186.128 154.727 185.502 154.341 184.874 153.955C184.501 153.724 184.126 153.494 183.732 153.308C181.626 152.317 179.154 152.687 176.878 153.176C176.804 153.192 176.73 153.208 176.656 153.224C176.591 153.238 176.526 153.252 176.461 153.266C174.313 153.732 172.09 154.213 169.981 153.635C167.736 153.019 165.767 150.685 166.469 148.466C167.883 150.534 170.344 151.845 172.849 151.865C173.811 151.872 174.803 151.688 175.6 151.149C177.231 150.046 177.615 147.849 177.856 145.894Z" fill="#00160A"/>
</svg>
