<svg width="600" height="600" viewBox="0 0 600 600" fill="none" xmlns="http://www.w3.org/2000/svg">
<path fill-rule="evenodd" clip-rule="evenodd" d="M328.927 52C469.2 52 498.732 246.398 499.305 247.997C499.897 249.646 500.454 251.342 500.993 252.988C502.087 256.332 503.494 259.551 504.589 262.873C505.258 264.899 506.489 266.578 507.313 268.491C508.913 272.147 510.872 275.636 513.164 278.904C514.11 280.199 514.853 281.63 515.369 283.148C515.731 284.309 516.93 284.619 517.447 285.644C518.285 287.303 519.402 288.82 520.369 290.413C520.589 290.973 521.094 291.371 521.691 291.455L521.503 293.036C521.853 293.606 521.972 292.836 522.338 292.971C522.797 293.589 523.45 294.137 523.517 295.077C523.577 295.96 524.608 296.043 524.961 296.814C525.735 298.486 527.887 299.339 527.855 301.534C529.402 302.505 530.162 304.172 531.33 305.48C531.929 306.082 532.294 306.875 532.364 307.717L532.374 307.912C532.366 308.749 533.982 308.561 533.547 309.704C536.022 311.561 536.665 314.596 537.972 317.11C540.068 321.144 542.484 325.042 543.907 329.459C544.62 331.669 546.002 333.759 546.771 335.997C548.499 341.027 550.574 345.947 551.698 351.184C552.161 353.348 553.107 355.409 553.55 357.579L554.062 360.087C554.823 363.85 555.545 367.622 556.024 371.436C556.27 372.296 556.27 373.208 556.023 374.068C555.61 375.047 556.707 375.674 556.795 376.657C556.905 377.822 556.439 378.925 556.774 380.162C556.959 380.844 556.775 381.939 556.987 382.729C557.676 385.301 556.803 387.953 557.553 390.506C557.671 391.494 557.567 392.495 557.249 393.437C556.73 396.581 557.679 399.791 556.732 402.861C556.289 404.375 556.205 405.97 556.484 407.519L556.601 408.117C556.684 408.559 556.74 408.99 556.523 409.288C555.66 410.467 555.882 411.857 555.71 413.147L555.678 413.361C555.43 414.805 555.686 416.318 555.249 417.789C554.654 419.229 554.32 420.764 554.262 422.321C554.483 424.961 553.594 427.33 553.049 429.781C552.777 431.006 553.002 432.462 551.655 433.373C550.969 433.836 552.587 434.736 551.606 435.414L551.491 435.486C550.771 435.892 550.802 436.548 551.005 437.333C551.19 438.051 549.936 438.547 550.295 439.281C550.654 440.016 550.816 441.085 550.396 441.22C549.349 441.564 550.415 442.703 549.535 442.919C549.448 442.966 549.388 443.051 549.373 443.148C549.073 445.905 547.297 448.169 546.858 450.925C546.525 452.571 545.884 454.139 544.968 455.547C544.21 456.906 543.566 458.326 543.042 459.792C542.057 462.256 540.371 464.314 539.422 466.767C539.164 467.43 537.444 467.208 538.319 468.571C537.316 468.925 537.621 469.964 537.217 470.613C536.773 471.103 536.255 471.522 535.683 471.855C535.312 473.315 534.603 474.667 533.611 475.802C531.878 478.336 529.987 480.758 527.948 483.054L526.264 484.939C524.013 487.454 521.689 489.914 518.723 491.647C517.96 492.092 518.307 492.938 517.679 493.396C514.042 496.081 510.692 499.127 506.554 501.162C504.822 502.014 503.338 503.528 501.568 504.416C498.212 506.099 495.097 508.196 491.509 509.507L490.871 509.73C488.585 510.491 486.335 511.643 484.015 512.48C479.249 514.352 474.275 515.645 469.2 516.329L466.069 516.676C463.285 516.984 460.499 517.268 457.687 517.345C456.357 517.381 455.08 516.959 453.863 517.111C452.676 517.261 451.472 517.164 450.325 516.826C449.419 516.573 448.653 517.352 447.677 516.933C446.928 516.465 446 516.395 445.193 516.737L445.033 516.811C444.57 517.078 443.66 516.583 442.955 516.424C441.927 516.281 440.917 516.031 439.941 515.679C439.185 515.33 438.221 516.453 437.694 515.259C436.738 516.001 371.75 500.558 312.054 531.918C307.192 535.139 301.503 536.553 296.309 539.054C293.894 540.22 291.179 540.752 288.58 541.548L288.025 541.723C283.436 543.205 278.73 544.218 274.031 545.275C269.714 546.21 265.34 546.86 260.937 547.221C257.772 547.507 254.591 547.64 251.433 547.985C250.153 548.124 248.897 547.222 247.644 547.997C244.829 547.231 241.873 548.161 239.066 547.295C237.199 547.848 235.444 547.162 233.728 546.657C232.418 546.268 231.184 547.074 229.86 546.503C228.655 545.874 227.306 545.575 225.948 545.634C223.694 545.979 221.731 545.152 219.678 544.715C214.907 543.699 210.153 542.601 205.416 541.42C203.865 541.032 202.123 541.182 200.793 539.996C199.627 538.955 197.787 539.607 196.642 538.378C196.224 537.93 195.69 538.797 195.06 538.459C193.832 537.799 192.253 538.235 191.106 537.045C190.255 536.164 188.651 536.76 187.709 535.696L187.585 535.541C187.03 534.769 185.564 536.588 185.13 534.869C183.378 534.735 181.926 533.78 180.366 533.126C179.074 532.586 177.549 532.891 176.383 531.765C175.389 530.806 173.511 531.512 172.65 530.074C170.544 530.057 168.991 528.481 166.984 528.066C165.46 527.666 163.998 527.064 162.634 526.276C160.473 525.165 158.278 524.118 156.067 523.125C155.274 522.756 154.502 522.344 153.754 521.89C153.335 521.644 153.233 521.102 152.635 520.969C148.843 520.13 145.655 517.92 142.417 515.988C140.57 515.033 138.803 513.933 137.133 512.698L136.58 512.281C136.091 511.861 135.075 511.654 134.646 511.069C133.447 509.441 131.655 508.645 130.03 507.668L129.761 507.503C128.845 506.964 128.013 506.294 127.29 505.516C127.153 505.367 127.097 505.045 126.952 505.01C124.254 504.343 122.644 502.115 120.582 500.558C118.807 499.219 117.256 497.588 115.509 496.223L114.843 495.725C110.755 492.8 66.0173 443.573 60.9479 435.078L59.4972 432.646C58.0486 430.21 56.6166 427.757 55.2981 425.255L54.1753 423.124C53.0543 420.99 51.9509 418.84 50.9754 416.653L49.6702 413.733C47.0662 407.89 44.5182 402.018 42.3464 395.987C40.4098 390.605 38.8066 385.135 37.188 379.66C36.1513 376.145 35.2753 372.614 34.5352 369.032C33.3528 363.309 32.2985 357.562 31.3722 351.792C30.5083 346.359 30.8279 340.846 29.6741 335.475C30.43 332.176 29.0403 328.829 29.9032 325.534C29.2631 323.907 29.826 322.219 29.8861 320.616C29.9478 318.96 29.5765 317.226 30.2376 315.548C30.5404 314.786 29.8404 313.87 30.2197 312.939C30.6361 312.165 30.6842 311.245 30.3507 310.431C31.4748 309.915 30.1349 309.119 30.6017 308.383C31.105 307.584 31.3273 306.641 31.2336 305.702C30.9063 303.6 32.117 301.659 31.9045 299.76C31.6828 297.818 32.6419 296.172 32.6388 294.431L32.6265 294.104C32.461 291.819 34.0943 290.099 34.1488 287.937C34.154 287.748 34.601 287.573 34.8461 287.385C34.7675 286.899 34.2298 287.009 33.8484 286.631C34.4573 286.103 34.99 285.493 35.4316 284.818C35.7658 283.894 36.0031 282.937 36.1398 281.964L34.5914 279.967C35.1628 278.824 34.9636 277.785 35.7265 276.889C36.0585 276.497 35.8733 275.301 35.9143 274.475C35.9684 273.39 37.3627 272.743 37.0263 271.886C36.7669 270.901 36.8509 269.856 37.2647 268.925C39.2595 260.13 41.2914 251.345 43.3605 242.567C43.5781 241.626 43.3887 240.443 44.5465 239.892C43.2814 238.586 45.2682 238.13 45.299 237.094C45.4603 236.127 45.8333 235.206 46.3914 234.399C47.1816 232.888 47.2542 231.012 47.7044 229.309C47.8229 228.106 48.2789 226.96 49.02 226.003C49.7907 225.205 49.6796 223.815 50.26 222.694C51.0798 221.34 51.7152 219.883 52.1494 218.361C52.2802 217.268 52.7161 216.233 53.4074 215.375C54.0213 214.697 53.5171 213.294 54.7102 212.782C55.0449 210.816 56.2192 209.236 57.0886 207.513L57.2478 207.188C59.3834 202.753 61.7837 198.451 64.4357 194.303C66.6391 190.813 68.783 187.285 71.0199 183.817C71.7477 182.697 72.5215 181.581 73.3218 180.518C76.1018 176.609 79.0962 172.856 82.2913 169.277C85.2135 166.18 87.9991 162.944 91.0673 159.967C92.6984 158.383 94.0332 156.438 95.6168 154.755C99.3485 150.784 103.181 146.92 107.211 143.252C110.615 139.889 114.338 136.864 118.327 134.218C119.411 133.559 120.303 132.592 121.349 131.862C122.62 131.162 123.84 130.373 124.998 129.5C126.347 128.232 128.001 127.426 129.362 126.251C130.419 125.34 132.11 125.86 132.867 124.22C133.418 123.027 135.482 123.465 136.177 122.071C138.082 122.008 138.972 120.163 140.702 119.556L140.933 119.484C142.756 118.987 144.312 117.516 145.984 116.472C147.597 115.33 149.285 114.297 151.037 113.38C154.325 111.899 157.163 109.643 160.376 108.114C163.441 106.658 166.199 104.526 169.541 103.714C170.33 103.523 170.183 102.827 170.727 102.53C171.292 102.219 171.911 102.425 172.422 102.066C174.535 100.687 188.655 52 328.927 52Z" fill=""/>
<path fill-rule="evenodd" clip-rule="evenodd" d="M170.699 156.359C166.007 159.006 159.137 155.63 158.366 150.298C161.359 150.138 164.558 149.904 166.924 148.065C169.29 146.225 170.118 142.151 167.746 140.319C148.439 137.948 129.657 131.388 113.072 121.223C124.397 117.81 134.141 110.612 144.778 105.441C155.415 100.269 168.281 97.2104 178.89 102.44C189.306 107.575 201.298 101.025 212.169 96.9361C231.071 89.8263 252.745 90.4224 271.228 98.5603C284.712 104.498 307.562 94.8605 322.129 92.6503C345.924 89.0401 369.153 105.717 393.046 102.829C390.483 104.524 387.919 106.219 385.356 107.914C387.881 107.683 390.418 107.59 392.953 107.634C373.124 117.123 353.295 126.612 333.466 136.1C338.49 138.132 343.513 140.164 348.536 142.196C347.355 145.982 343.122 148.538 339.222 147.822C342.36 150.319 345.499 152.817 348.637 155.314C345.287 157.694 341.047 158.787 336.964 158.324C341.312 161.131 344.901 165.103 347.255 169.713C357.613 166.262 368.959 165.837 379.546 168.504C369.981 169.758 360.415 171.012 350.85 172.266C352.294 176.199 353.739 180.132 355.183 184.065C367.679 181.205 380.96 181.855 393.117 185.922C381.062 186.229 369.007 186.535 356.951 186.842C356.67 202.836 348.707 219.147 334.726 226.919C320.745 234.691 292.807 241.602 283.553 218.972C276.469 223.621 276.97 234.798 282.021 241.602C287.073 248.406 295.097 252.172 302.355 256.546C326.464 271.076 344.648 295.137 352.044 322.296C359.44 349.455 355.968 379.414 342.556 404.162C360.638 406.973 377.441 417.263 388.163 432.093C411.252 421.35 424.04 396.836 441.726 378.513C461.845 357.67 489.617 344.385 518.471 341.801C535.542 340.272 555.011 343.564 564.969 357.514C577.912 375.647 565.979 403.839 545.319 412.175C528.941 418.783 510.47 415.459 492.854 416.707C457.43 419.218 426.331 440.106 397.122 460.303C395.93 466.842 398.321 473.922 403.233 478.401C413.682 467.601 426.862 459.465 441.198 454.964C446.498 453.3 454.441 453.734 455.03 459.257C455.253 461.347 454.153 463.33 453.04 465.114C443.482 480.437 430.004 493.293 414.247 502.117C405.929 506.775 396.635 510.385 387.117 509.852C377.599 509.319 367.907 503.825 364.674 494.857C363.176 490.702 363.014 485.891 360.177 482.505C355.377 476.777 346.157 478.492 339.429 481.746C332.702 485 325.53 489.424 318.31 487.493C300.262 482.666 281.479 480.596 262.813 481.378C239.041 482.373 214.82 487.907 191.789 481.937C184.095 479.943 175.485 476.797 168.67 480.886C155.238 488.944 164.298 514.738 150.517 522.185C145.636 524.823 139.654 523.85 134.269 522.514C110.473 516.607 88.1519 504.846 69.8261 488.557C68.06 486.987 66.2403 485.224 65.7453 482.913C64.2602 475.983 74.4902 473.099 81.4609 474.382C93.3019 476.562 104.627 481.498 114.284 488.688C117.669 491.209 122.82 488.268 124.254 484.299C125.688 480.329 124.701 475.958 124.142 471.775C120.606 445.353 137.183 417.573 162.115 408.137C147.02 386.109 141.28 357.885 146.572 331.71C151.864 305.536 168.118 281.758 190.585 267.325C199.56 261.559 209.872 256.843 215.592 247.838C221.312 238.833 218.802 223.726 208.338 221.65C198.479 232.328 182.442 236.844 168.46 232.881C154.477 228.918 143.196 216.659 140.406 202.396C131.125 205.53 121.845 208.664 112.564 211.798C120.801 205.45 130.556 201.085 140.779 199.174C141.76 194.923 142.741 190.672 143.722 186.421C126.014 185.278 108.056 188.193 91.6172 194.877C101.733 187.262 114.603 183.393 127.24 184.167C140.094 184.955 153.16 178.666 160.563 168.128C155.931 166.5 151.769 163.56 148.685 159.74C153.408 157.176 159.129 156.512 164.315 157.925M261.544 435.164C260.701 435.985 259.794 436.959 259.854 438.134C259.913 439.309 261.676 440.186 262.284 439.179C265.602 433.681 271.374 429.729 277.699 428.622C284.024 427.515 290.795 429.272 295.784 433.315C297.524 434.726 299.078 436.412 301.066 437.443C301.782 437.815 303.007 437.824 303.037 437.019C303.047 436.754 302.895 436.513 302.747 436.294C299.164 431.014 293.808 426.961 287.753 424.949C282.445 423.185 276.295 423.074 271.548 426.032C269.824 427.106 268.354 428.534 266.899 429.951C265.114 431.689 263.329 433.427 261.544 435.164ZM235.804 425.557C228.933 424.648 221.534 426.954 216.958 432.161C216.152 433.079 215.419 434.111 215.141 435.301C214.864 436.491 215.124 437.868 216.046 438.67C219.586 433.17 225.876 429.544 232.409 429.235C238.942 428.927 245.546 431.946 249.587 437.087C250.22 437.891 250.822 438.77 251.719 439.261C252.617 439.753 253.922 439.689 254.468 438.825C255.12 437.792 254.332 436.471 253.527 435.552C248.961 430.337 242.676 426.465 235.804 425.557ZM284.276 418.522C284.169 419.684 285.704 420.407 286.807 420.026C287.91 419.646 288.642 418.63 289.38 417.727C295.524 410.213 307.221 407.95 315.724 412.629C316.839 411.687 316.902 409.881 316.156 408.626C315.41 407.372 314.047 406.602 312.657 406.157C309.645 405.194 306.375 405.523 303.276 406.15C295.941 407.634 288.532 411.111 284.676 417.524C284.49 417.834 284.309 418.162 284.276 418.522ZM255.44 442.897C252.426 443.107 249.475 443.905 246.653 444.985C242.753 446.478 238.913 448.652 236.63 452.149C239.978 453.097 243.188 450.6 246.246 448.941C253.107 445.217 262.006 445.602 268.52 449.904C270.564 451.254 273.189 452.997 275.182 451.573C270.52 445.729 262.898 442.379 255.44 442.897ZM267.825 441.013C270.112 439.821 271.94 437.887 274.208 436.66C277.331 434.97 281.222 434.775 284.499 436.144C286.278 436.887 287.853 438.05 289.607 438.853C291.36 439.655 293.448 440.072 295.195 439.255C295.389 439.164 295.589 439.045 295.671 438.847C295.804 438.526 295.568 438.179 295.339 437.918C291.43 433.456 285.306 431.039 279.404 431.628C273.502 432.217 267.976 435.797 265.026 440.943C265.642 441.754 266.923 441.483 267.825 441.013ZM222.035 441.226C223.26 440.529 224.218 439.453 225.338 438.597C227.578 436.887 230.496 436.099 233.295 436.424C236.414 436.787 239.227 438.438 241.807 440.229C242.562 440.753 243.332 441.303 244.227 441.511C245.121 441.72 246.187 441.494 246.693 440.727C247.194 439.969 246.993 438.912 246.457 438.178C245.921 437.444 245.117 436.961 244.333 436.502C241.144 434.632 237.774 432.762 234.082 432.571C229.468 432.333 225.178 434.738 221.187 437.067C219.569 438.012 217.71 439.443 218.052 441.285C219.16 442.156 220.81 441.923 222.035 441.226ZM242.818 423.337C243.651 424.415 245.282 423.259 246.202 422.254C249.035 419.159 253.119 417.242 257.311 417.041C261.502 416.84 265.751 418.356 268.867 421.166C269.654 421.875 270.483 422.712 271.541 422.741C272.599 422.77 273.552 421.293 272.713 420.648C268.22 417.196 262.992 414.375 257.338 414.002C251.684 413.63 245.591 416.166 242.973 421.192C242.623 421.865 242.354 422.736 242.818 423.337ZM292.807 422.392C293.553 422.076 294.1 421.434 294.671 420.86C299.021 416.484 306.391 415.505 311.732 418.595C313.068 419.368 315.077 420.22 315.853 418.886C316.501 417.774 315.347 416.48 314.247 415.813C307.063 411.457 296.822 413.116 291.381 419.518C290.827 420.17 290.295 421.064 290.676 421.83C291.036 422.556 292.061 422.707 292.807 422.392ZM296.778 422.803C296.469 423.061 296.161 423.351 296.032 423.731C295.668 424.795 296.961 425.791 298.081 425.701C299.202 425.612 300.154 424.892 301.171 424.413C303.649 423.244 306.628 423.523 309.143 424.609C310.139 425.039 311.103 425.594 312.175 425.755C313.247 425.916 314.498 425.561 314.986 424.593C310.722 419.309 301.989 418.45 296.778 422.803ZM229.372 420.776C230.008 421.074 230.876 421.017 231.285 420.445C231.842 419.668 231.246 418.61 230.655 417.859C228.654 415.315 226.502 412.81 223.751 411.104C221.001 409.398 217.537 408.577 214.474 409.622C214.163 410.754 215.571 411.522 216.679 411.908C220.945 413.396 224.817 415.999 227.806 419.388C228.271 419.915 228.735 420.477 229.372 420.776ZM267.074 423.615C262.039 420.404 255.167 420.347 250.08 423.475C249.196 424.019 248.287 424.783 248.219 425.818C248.15 426.854 249.556 427.815 250.253 427.046C253.064 423.949 258.198 423.306 261.686 425.615C263.398 426.749 265.856 426.595 267.413 425.255C268.148 425.178 267.697 424.012 267.074 423.615ZM303.7 440.989C296.546 440.506 289.889 444.715 284.696 449.66C285.074 450.533 286.363 450.302 287.237 449.924C293.15 447.364 299.064 444.805 304.978 442.246C305.422 441.658 304.435 441.038 303.7 440.989ZM235.612 444.175C236.492 444.674 237.354 445.352 238.365 445.353C239.376 445.354 240.379 444.136 239.738 443.354C237.718 440.891 234.543 439.419 231.357 439.467C228.172 439.516 225.044 441.085 223.1 443.609C223.34 444.526 224.462 444.948 225.4 444.811C226.338 444.674 227.164 444.146 228.034 443.769C230.44 442.727 233.331 442.881 235.612 444.175ZM271.088 443.503C271.007 444.207 271.806 444.746 272.513 444.707C273.221 444.669 273.843 444.254 274.464 443.913C277.07 442.477 280.279 442.183 283.103 443.12C284.912 443.721 287.17 444.703 288.476 443.314C288.59 442.521 287.794 441.922 287.086 441.545C284.55 440.196 281.758 439.178 278.885 439.205C276.012 439.231 273.048 440.436 271.408 442.795C271.259 443.01 271.117 443.243 271.088 443.503ZM265.748 412.592C268.706 413.651 271.46 415.273 273.82 417.347C274.792 418.201 275.724 419.148 276.904 419.681C278.084 420.214 279.616 420.228 280.539 419.321C278.496 417.753 276.817 415.713 275.672 413.406C275.055 412.163 273.411 411.936 272.025 411.868C270 411.769 267.975 411.67 265.949 411.571C265.735 411.858 265.659 412.244 265.748 412.592ZM239.332 419.703C240.378 418.726 241.149 417.495 242.116 416.44C243.614 414.803 245.587 413.607 247.731 413.035C248.656 412.788 249.872 412.315 249.732 411.368C247.112 410.912 244.122 410.545 242.056 412.219C239.161 414.564 236.867 417.643 235.447 421.087C236.844 421.396 238.286 420.68 239.332 419.703ZM216.04 418.517C217.918 419.741 219.796 420.964 221.674 422.188C222.468 422.706 223.483 423.236 224.308 422.767C225.073 422.331 225.19 421.209 224.792 420.425C224.393 419.64 223.632 419.114 222.902 418.623C221.373 417.593 219.844 416.564 218.315 415.534C217.035 414.672 214.949 413.985 214.253 415.362C213.652 416.55 214.925 417.791 216.04 418.517ZM255.578 433.226C256.297 433.939 257.303 434.709 258.216 434.272C258.633 434.073 258.901 433.663 259.147 433.273C259.961 431.987 260.775 430.7 261.59 429.413C259.458 427.043 255.274 426.98 253.072 429.284C252.903 429.461 252.738 429.664 252.708 429.907C252.66 430.292 252.957 430.625 253.233 430.898C254.015 431.674 254.796 432.45 255.578 433.226ZM222.718 451.624C224.245 452.16 226.047 452.318 227.394 451.421C225.367 449.089 222.99 447.061 220.369 445.425C219.625 444.961 218.786 444.513 217.918 444.636C217.05 444.76 216.282 445.747 216.702 446.516C217.992 448.877 220.179 450.734 222.718 451.624ZM306.503 432.88C307.225 432.008 307.947 431.136 308.668 430.264C308.917 429.963 309.179 429.624 309.164 429.235C309.144 428.74 308.691 428.384 308.26 428.142C306.76 427.298 304.989 426.946 303.281 427.152C302.628 427.23 301.947 427.408 301.488 427.88C301.029 428.351 300.896 429.187 301.358 429.656C302.406 430.717 303.454 431.779 304.501 432.84C304.844 433.187 305.278 433.563 305.754 433.46C306.069 433.391 306.298 433.128 306.503 432.88ZM231.196 414.04C231.843 414.737 232.656 415.45 233.604 415.372C235.637 415.204 236.292 411.696 238.323 411.888C238.868 410.989 237.38 410.271 236.329 410.254C233.609 410.211 230.889 410.168 228.17 410.125C229.057 411.517 230.072 412.83 231.196 414.04ZM247.993 452.268C253.65 452.243 259.308 452.219 264.966 452.194C264.47 451.076 263.142 450.622 261.945 450.373C258.019 449.56 253.902 449.684 250.032 450.733C249.165 450.968 248.176 451.389 247.993 452.268ZM282.926 446.314C281.054 446.399 279.182 446.484 277.31 446.568C276.706 446.596 275.93 446.771 275.856 447.371C275.823 447.64 275.957 447.897 276.088 448.134C276.583 449.033 277.109 449.967 277.965 450.533C278.821 451.1 280.109 451.155 280.775 450.374C281.285 449.776 281.326 448.842 281.934 448.344C282.326 448.023 282.87 447.959 283.304 447.697C283.738 447.434 284.014 446.753 283.612 446.444C283.423 446.299 283.164 446.304 282.926 446.314ZM234.456 449.446C234.956 448.665 234.483 447.561 233.703 447.059C232.924 446.557 231.95 446.496 231.024 446.45C230.002 446.4 228.655 446.588 228.472 447.595C228.385 448.075 228.629 448.546 228.865 448.973C229.559 450.226 230.58 451.662 232.005 451.52C233.109 451.411 233.857 450.381 234.456 449.446ZM308.404 438.22C309.244 438.289 309.997 437.72 310.586 437.117C312.384 435.279 313.528 432.814 313.769 430.254C313.174 429.874 312.447 430.464 311.991 431.003C310.46 432.813 308.929 434.623 307.398 436.433C306.854 437.076 307.564 438.151 308.404 438.22ZM214.763 425.397C215.616 426.465 217.263 426.8 218.466 426.15C219.082 425.817 219.601 425.156 219.479 424.467C219.37 423.853 218.811 423.437 218.296 423.085C217.552 422.578 216.807 422.071 216.063 421.563C215.836 421.408 215.574 421.246 215.305 421.301C215.119 421.34 214.97 421.476 214.845 421.619C213.946 422.649 213.909 424.329 214.763 425.397ZM280.873 414.122C281.767 414.872 283.092 414.097 283.979 413.339C284.941 412.516 285.904 411.693 286.867 410.871C286.322 410.351 285.451 410.468 284.713 410.621C282.57 411.064 280.427 411.506 278.284 411.949C279.147 412.673 280.01 413.397 280.873 414.122ZM314.529 403.608C315.068 404.28 316.204 404.135 316.823 403.535C317.442 402.935 317.67 402.048 317.847 401.205C317.89 401.002 317.93 400.783 317.845 400.594C317.629 400.114 316.916 400.259 316.438 400.481C315.154 401.08 313.641 402.503 314.529 403.608Z" fill="white"/>
<path fill-rule="evenodd" clip-rule="evenodd" d="M146.572 331.71C151.864 305.536 169.959 283.625 192.426 269.191C181.066 284.763 146.207 310.299 157.411 338.749C175.321 384.225 244.995 391.377 242.571 391.872C201.362 400.274 142.632 351.199 146.572 331.71Z" fill="#E7EAEE"/>
<path fill-rule="evenodd" clip-rule="evenodd" d="M278.385 104.571C275.519 104.919 272.993 107.215 272.374 110.036C295.58 97.5585 323.609 94.3508 349.034 101.263C349.056 114.085 340.061 126.417 327.846 130.314L301.362 138.763C308.349 139.538 315.527 138.514 322.018 135.816C324.324 139.449 328.123 142.103 332.328 143.018L324.187 144.803C325.387 148.46 327.838 151.694 331.034 153.839C328.322 152.91 325.304 152.9 322.586 153.812L324.408 160.431C312.405 158.766 299.578 160.4 289.468 167.082C279.358 173.763 272.569 186.045 274.391 198.026C276.523 185 285.449 173.281 297.44 167.765C309.432 162.248 324.139 163.096 335.418 169.952L327.767 175.619C330.705 176.788 334.187 176.49 336.884 174.838C342.772 177.443 341.142 188.217 334.746 188.963L343.206 189.552C344.673 203.938 335.786 218.774 322.41 224.269C309.033 229.764 292.284 225.461 283.213 214.198C271.954 219.948 272.743 237.375 280.767 247.144C286.369 253.964 294.083 258.394 301.81 262.832L301.811 262.833L301.812 262.833L301.812 262.833L301.813 262.834L301.813 262.834L301.814 262.834L301.815 262.835L301.815 262.835L301.816 262.835L301.816 262.836L301.817 262.836L301.817 262.837L301.818 262.837L301.819 262.837L301.819 262.838L301.82 262.838L301.82 262.838L301.821 262.839L301.822 262.839L301.822 262.84L301.823 262.84L301.823 262.84L301.824 262.841L301.825 262.841L301.825 262.841L301.826 262.842L301.826 262.842L301.827 262.842L301.828 262.843L301.828 262.843L301.829 262.844L301.829 262.844L301.83 262.844L301.831 262.845C305.166 264.76 308.503 266.677 311.674 268.788C328.55 280.029 341.13 297.559 346.377 317.145C337.213 323.282 329.061 330.926 322.35 339.678C332.279 339.215 342.004 335.164 349.326 328.441L350.889 343.566C342.85 346.041 335.627 351.095 330.546 357.798C337.71 358.527 345.098 356.854 351.249 353.108C349.046 370.511 345.07 387.689 339.402 404.289L320.925 404.138C325.309 392.024 329.749 378.99 326.52 366.518C323.29 354.046 308.805 343.751 297.403 349.75C310.516 339.181 320.446 324.713 325.592 308.676L292.571 351.299L267.232 351.514C266.435 339.575 265.669 327.339 269.063 315.865C272.457 304.391 280.931 293.65 292.607 291.034C293.874 290.75 295.222 290.519 296.589 290.285C302.296 289.307 308.313 288.276 309.988 283.119C291.061 282.018 272.088 294.135 265.126 311.769C260.165 324.336 261.04 338.342 261.99 351.819C244.492 349.295 226.575 349.701 209.21 353.014C206.195 342.738 203.069 332.231 196.745 323.588C190.421 314.945 180.155 308.39 169.499 309.457C186.66 312.008 195.161 331.077 201.632 347.175C208.103 363.273 219.851 381.66 237.127 380.067C242.047 379.613 243.613 387.695 239.842 390.888C236.072 394.081 230.468 393.473 225.642 392.417C200.778 386.975 177.564 374.208 159.653 356.125C156.166 352.603 152.793 348.751 151.182 344.064C149.194 338.282 150.12 331.896 151.83 326.025C160.563 296.034 187.441 275.485 212.984 257.504C226.726 247.831 226.233 223.859 212.105 214.758C201.647 224.262 187.702 230.907 173.656 229.357C159.61 227.806 146.317 216.306 145.864 202.182C150.275 201.793 154.599 200.439 158.444 198.241C154.67 196.9 150.417 196.958 146.68 198.4C145.664 194.593 146.406 190.355 148.655 187.12L156.663 186.264C155.053 184.444 152.808 183.197 150.411 182.793C156.191 173.162 169.605 170.526 180.355 173.78C191.105 177.035 199.811 184.788 208.14 192.323C199.455 173.281 175.904 167.143 155.342 163.241L164.315 157.925C159.129 156.512 153.408 157.176 148.685 159.74C151.769 163.56 155.931 166.5 160.563 168.128C153.16 178.666 140.094 184.955 127.24 184.167C114.603 183.393 101.733 187.262 91.6172 194.877C108.056 188.193 126.014 185.278 143.722 186.421L140.779 199.174C130.556 201.085 120.801 205.45 112.564 211.798L140.406 202.396C143.196 216.659 154.477 228.918 168.46 232.881C182.442 236.844 198.479 232.328 208.338 221.65C218.802 223.726 221.312 238.833 215.592 247.838C211.063 254.968 203.655 259.409 196.311 263.812C194.38 264.969 192.454 266.124 190.585 267.325C168.118 281.758 151.864 305.536 146.572 331.71C141.28 357.885 147.02 386.109 162.115 408.137C137.183 417.573 120.606 445.353 124.142 471.775C124.222 472.38 124.312 472.989 124.403 473.6L124.403 473.601C124.936 477.215 125.481 480.904 124.254 484.299C122.82 488.268 117.669 491.209 114.284 488.688C104.627 481.498 93.3019 476.562 81.4609 474.383C74.4902 473.1 64.2602 475.983 65.7453 482.913C66.2403 485.224 68.06 486.987 69.8261 488.557C88.1519 504.846 110.473 516.607 134.269 522.514C139.654 523.85 145.636 524.823 150.517 522.185C157.467 518.43 158.607 510.009 159.753 501.549C160.88 493.233 162.011 484.881 168.67 480.886C174.682 477.279 182.091 479.302 189.036 481.198L189.036 481.198L189.037 481.198C189.964 481.451 190.883 481.702 191.789 481.937C208.302 486.217 225.427 484.584 242.559 482.95L242.559 482.949C249.322 482.304 256.085 481.659 262.813 481.378C281.479 480.596 300.262 482.666 318.31 487.493C324.596 489.175 330.846 486.038 336.797 483.051C337.682 482.607 338.559 482.167 339.429 481.746C346.157 478.492 355.377 476.777 360.177 482.505C362.075 484.771 362.776 487.673 363.48 490.591C363.829 492.034 364.178 493.482 364.674 494.857C367.907 503.825 377.599 509.319 387.117 509.852C396.635 510.385 405.929 506.775 414.247 502.117C430.004 493.293 443.482 480.437 453.04 465.114C454.153 463.33 455.253 461.347 455.03 459.257C454.441 453.734 446.498 453.3 441.198 454.964C426.862 459.465 413.682 467.601 403.233 478.401C398.321 473.922 395.93 466.842 397.122 460.303C426.331 440.106 457.43 419.218 492.854 416.708C498.408 416.314 504.047 416.375 509.678 416.436C521.909 416.568 534.105 416.699 545.319 412.175C565.979 403.839 577.912 375.647 564.969 357.514C555.011 343.564 535.542 340.272 518.471 341.801C489.617 344.385 461.845 357.67 441.726 378.513C436.136 384.305 431.036 390.714 425.944 397.112C414.927 410.956 403.954 424.745 388.163 432.093C377.441 417.263 360.638 406.973 342.556 404.162C355.968 379.414 359.44 349.455 352.044 322.296C344.648 295.137 326.464 271.076 302.355 256.546C301.042 255.754 299.703 254.983 298.361 254.209C292.29 250.709 286.158 247.175 282.021 241.602C276.97 234.798 276.469 223.621 283.553 218.972C292.974 231.899 312.745 234.691 326.726 226.919C340.707 219.147 348.67 202.836 348.951 186.842L385.117 185.922C372.96 181.855 359.679 181.205 347.183 184.065L342.85 172.266L371.546 168.504C360.959 165.837 349.613 166.262 339.255 169.713C336.901 165.103 333.312 161.131 328.964 158.324C333.047 158.787 337.287 157.694 340.637 155.314L331.222 147.822C335.122 148.538 339.355 145.982 340.536 142.196L325.466 136.1L384.953 107.634C382.418 107.59 379.881 107.683 377.356 107.914L385.046 102.829C373.306 104.248 361.726 100.943 350.16 97.6428C338.188 94.2262 326.232 90.8141 314.129 92.6503C309.375 93.3717 304.59 94.8844 299.832 96.3884C290.014 99.4923 280.311 102.56 271.228 98.5603C252.745 90.4224 231.071 89.8263 212.169 96.9361C210.497 97.5648 208.799 98.2517 207.085 98.9454C197.648 102.763 187.705 106.785 178.89 102.44C168.281 97.2104 155.415 100.269 144.778 105.441C141.044 107.256 137.42 109.321 133.799 111.385C127.105 115.2 120.421 119.008 113.072 121.223C129.657 131.388 148.439 137.948 167.746 140.319C170.118 142.151 169.29 146.225 166.924 148.065C164.558 149.904 161.359 150.138 158.366 150.298C159.137 155.63 166.007 159.006 170.699 156.359C168.727 156.726 168.58 153.522 169.399 151.692L174.511 140.268C178.481 141.726 183.422 139.387 184.811 135.392C174.98 136.575 164.779 137.726 155.361 134.668C145.943 131.609 137.528 123.077 137.97 113.184C158.943 101.033 187.099 102.678 206.514 117.19C205.015 112.815 201.33 109.251 196.907 107.898C202.013 102.871 208.792 99.5716 215.898 98.6544C211.677 101.995 209.742 107.967 211.203 113.148L230.158 95.7135C227.049 101.288 225.307 107.619 225.128 114C232.158 109.406 237.759 102.657 240.978 94.9L249.411 96.084C244.248 100.446 241.372 107.377 241.93 114.112C248.355 110.117 253.336 103.852 255.78 96.6922C263.698 97.9714 271.388 100.652 278.385 104.571ZM511.315 413.205H511.314H511.313H511.313H511.312H511.311H511.31H511.31H511.309H511.308H511.307H511.307H511.306H511.305H511.305H511.304H511.303H511.302H511.302H511.301H511.3H511.299H511.299H511.298H511.297H511.296H511.296H511.295H511.294H511.294H511.293H511.292H511.291H511.291H511.29C507.058 413.065 502.824 412.924 498.615 413.044C467.223 413.935 438.037 429.225 412.136 446.985C411.773 447.234 411.409 447.484 411.045 447.734C406.13 451.115 401.167 454.529 395.556 456.523L388.964 437.311C388.61 436.281 388.393 434.864 389.351 434.346C399.43 428.895 408.634 421.83 416.503 413.501C421.747 407.951 426.397 401.853 431.043 395.762C437.621 387.136 444.188 378.525 452.412 371.507C465.545 360.299 482.078 353.884 498.667 349.1C510.944 345.559 523.808 342.782 536.436 344.726C549.064 346.671 561.498 354.208 566.128 366.116C569.806 375.574 568.007 386.731 562.34 395.15C556.674 403.568 547.473 409.298 537.614 411.701C529.039 413.791 520.184 413.498 511.315 413.205ZM150.111 453.902C150.775 455.481 151.194 457.588 149.868 458.673C148.162 460.07 145.74 458.269 144.306 456.593L132.082 442.309C129.156 449.916 127.813 458.129 128.165 466.272C128.235 467.907 128.368 469.565 128.502 471.23C129.013 477.591 129.531 484.036 126.585 489.552C125.293 491.971 123.094 494.192 120.357 494.369C118.805 494.47 117.295 493.903 115.863 493.297C111.938 491.638 108.071 489.598 104.205 487.559C94.2537 482.31 84.31 477.065 73.4131 478.316C71.925 478.487 70.0719 479.221 70.13 480.718C70.1561 481.388 70.5933 481.964 71.0185 482.483C86.7292 501.67 111.298 510.975 135.08 518C138.97 519.149 143.069 520.267 147.03 519.395C150.991 518.523 154.667 514.951 154.189 510.924C152.924 500.268 156.262 489.144 163.187 480.947C165.951 477.674 169.446 474.761 173.64 473.89C178.792 472.82 183.827 474.943 188.786 477.033L188.788 477.033L188.789 477.034L188.797 477.038L188.803 477.04C190.071 477.575 191.335 478.107 192.593 478.583C202.287 482.248 213.182 482.648 223.118 479.703C219.233 479.653 217.368 474.995 216.563 471.194C211.347 446.573 208.574 421.435 208.297 396.268C208.267 393.532 206.348 391.112 204.032 389.653C202.072 388.418 199.838 387.731 197.615 387.048L197.606 387.045C197.206 386.922 196.807 386.799 196.41 386.674C188.317 384.11 180.692 380.08 174.016 374.838C173.174 374.177 172.346 373.496 171.517 372.815C168.961 370.715 166.404 368.613 163.47 367.108C159.585 365.115 154.777 364.302 150.883 366.278C150.015 368.348 151.585 370.753 153.595 371.752C155.117 372.509 156.823 372.714 158.524 372.919L158.525 372.919L158.526 372.92L158.528 372.92L158.529 372.92L158.53 372.92L158.531 372.92L158.532 372.92L158.533 372.921L158.534 372.921L158.536 372.921L158.537 372.921L158.538 372.921L158.539 372.922L158.54 372.922L158.541 372.922L158.542 372.922L158.544 372.922L158.545 372.922L158.546 372.923L158.547 372.923L158.548 372.923L158.549 372.923L158.55 372.923L158.552 372.924L158.553 372.924L158.554 372.924L158.555 372.924L158.556 372.924L158.557 372.924L158.558 372.925L158.56 372.925L158.561 372.925C159.094 372.989 159.626 373.052 160.152 373.134C162.711 373.532 165.202 374.365 167.485 375.588C169.883 376.872 172.155 380.263 170.017 381.946C169.141 382.637 167.912 382.588 166.8 382.507L154.248 381.584C157.308 389.909 161.209 397.924 165.872 405.469C166.291 406.146 166.85 406.899 167.646 406.906C179.943 407.017 193.675 408.738 201.468 418.251C202.945 420.055 204.157 422.66 202.89 424.617C195.747 415.992 184.573 410.855 173.376 411.048C162.178 411.242 151.189 416.761 144.348 425.628C150.386 429.669 155.186 435.535 157.953 442.253C158.789 444.282 158.635 447.601 156.441 447.555L143.265 431.423C142.676 430.702 141.969 429.919 141.039 429.891C140.292 429.868 139.635 430.345 139.043 430.8C137.761 431.785 136.431 432.829 135.762 434.3C135.093 435.772 135.342 437.796 136.736 438.615C142.675 442.104 147.442 447.551 150.111 453.902ZM300.327 479.148C308.789 472.09 311.549 460.468 313.821 449.686L322.147 410.177C322.236 409.755 322.338 409.307 322.642 409.001C323.043 408.596 323.671 408.552 324.241 408.535C339.418 408.077 355.576 409.522 367.8 418.529C362.812 421.002 358.452 424.73 355.234 429.273C354.331 430.547 353.576 432.464 354.739 433.507C355.175 433.898 355.782 434.037 356.367 434.078C359.281 434.286 361.942 432.466 364.072 430.466C364.531 430.035 364.982 429.589 365.433 429.142C367.075 427.518 368.724 425.886 370.808 424.932C373.464 423.716 377.154 424.057 378.62 426.584C373.883 428.997 369.979 433.012 367.7 437.815C367.106 439.066 366.616 440.511 367.096 441.809C367.577 443.107 369.468 443.868 370.398 442.843L379.55 432.739C379.993 432.25 380.608 431.713 381.227 431.939C381.562 432.061 381.78 432.377 381.971 432.678C386.822 440.289 388.75 449.152 390.686 458.052C391.82 463.264 392.957 468.489 394.685 473.484C396.069 477.486 398.742 481.981 402.977 481.984C405.317 481.986 407.387 480.546 409.24 479.116C411.22 477.588 413.19 475.984 415.169 474.373L415.17 474.373C424.478 466.798 433.997 459.051 445.72 458.124C447.568 457.977 449.939 458.385 450.373 460.187C450.624 461.234 450.061 462.288 449.5 463.206C440.786 477.468 427.716 488.714 413.278 497.131C405.885 501.441 397.779 505.143 389.222 505.209C380.665 505.275 371.605 500.9 368.372 492.978C367.712 491.362 367.309 489.656 366.905 487.951L366.905 487.951L366.905 487.95L366.905 487.95L366.905 487.95L366.905 487.95L366.905 487.949L366.905 487.949L366.905 487.949L366.905 487.948L366.905 487.948L366.904 487.948L366.904 487.948L366.904 487.947L366.904 487.947L366.904 487.947L366.904 487.947L366.904 487.946L366.904 487.946L366.904 487.946L366.904 487.945L366.904 487.945L366.903 487.945L366.903 487.945L366.903 487.944L366.903 487.944L366.903 487.944L366.903 487.944L366.903 487.943L366.903 487.943L366.903 487.943L366.903 487.942L366.903 487.942C366.437 485.974 365.972 484.007 365.113 482.184C362.894 477.478 357.976 474.166 352.782 473.878C347.835 473.604 343.286 475.807 338.747 478.006L338.746 478.006C337.152 478.779 335.559 479.55 333.951 480.214C323.269 484.619 310.709 484.221 300.327 479.148ZM243.846 394.092C240.661 396.809 236.376 397.895 232.201 398.201C224.677 398.753 217 396.992 210.47 393.216L213.164 403.415C213.28 403.854 213.419 404.328 213.784 404.599C214.101 404.834 214.52 404.863 214.915 404.884L253.632 406.919C259.276 407.215 264.928 407.512 270.578 407.349C286.425 406.891 302.155 402.754 316.177 395.355C316.986 394.929 317.81 394.474 318.392 393.769C319.087 392.929 319.361 391.828 319.593 390.762C321.557 381.754 321.897 372.395 320.591 363.268C320.27 361.026 319.824 358.727 318.563 356.846C317.303 354.964 315.037 353.589 312.812 354.012C290.026 358.351 266.767 357.011 243.509 355.671C234.743 355.166 225.978 354.661 217.238 354.46C215.678 354.424 214.037 354.416 212.666 355.163C211.296 355.909 210.352 357.682 211.056 359.075C215.042 366.959 223.276 371.991 231.814 374.26C232.426 374.423 233.053 374.582 233.687 374.744L233.689 374.744C239.212 376.149 245.294 377.696 247.3 382.837C248.822 386.737 247.03 391.374 243.846 394.092ZM305.965 460.917C304.403 467.118 301.12 473.551 295.162 475.877C293.078 476.691 290.822 476.933 288.594 477.14C267.941 479.062 247.067 478.599 226.519 475.763C225.295 475.594 224.005 475.388 223.052 474.604C221.891 473.648 221.497 472.066 221.192 470.593C220.26 466.077 219.537 461.519 219.027 456.937C218.937 456.125 219.162 454.967 219.976 455.03C233.124 456.053 246.31 456.591 259.498 456.641C268.596 456.676 277.765 456.471 286.65 454.516C295.535 452.562 304.198 448.743 310.694 442.374C308.847 446.252 308.052 450.488 307.256 454.73L307.256 454.731L307.256 454.731L307.256 454.731L307.256 454.732L307.256 454.732L307.256 454.732L307.256 454.733L307.255 454.733L307.255 454.734L307.255 454.734L307.255 454.734L307.255 454.735L307.255 454.735L307.255 454.735L307.255 454.736L307.255 454.736L307.255 454.736L307.254 454.737L307.254 454.737L307.254 454.738L307.254 454.738L307.254 454.738L307.254 454.739L307.254 454.739L307.254 454.74C306.865 456.811 306.477 458.884 305.965 460.917ZM261.544 435.164C260.701 435.985 259.794 436.959 259.854 438.134C259.913 439.309 261.676 440.186 262.284 439.179C265.602 433.681 271.374 429.729 277.699 428.622C284.024 427.515 290.795 429.272 295.784 433.315C296.301 433.735 296.803 434.179 297.304 434.623L297.305 434.624C298.488 435.672 299.67 436.719 301.066 437.443C301.782 437.815 303.007 437.824 303.037 437.019C303.047 436.754 302.895 436.513 302.747 436.294C299.164 431.014 293.808 426.961 287.753 424.949C282.445 423.185 276.295 423.074 271.548 426.032C269.824 427.106 268.354 428.534 266.899 429.951L261.544 435.164ZM216.958 432.161C221.534 426.954 228.933 424.648 235.804 425.557C242.676 426.465 248.962 430.337 253.527 435.552C254.332 436.471 255.12 437.792 254.468 438.825C253.922 439.689 252.617 439.753 251.72 439.261C250.937 438.833 250.378 438.109 249.829 437.398C249.748 437.294 249.668 437.19 249.587 437.087C245.546 431.946 238.942 428.927 232.409 429.235C225.876 429.544 219.586 433.17 216.046 438.67C215.124 437.868 214.864 436.491 215.141 435.301C215.419 434.111 216.152 433.079 216.958 432.161ZM284.276 418.522C284.169 419.684 285.704 420.407 286.807 420.026C287.8 419.684 288.492 418.827 289.159 418L289.164 417.993C289.236 417.904 289.308 417.815 289.38 417.727C295.524 410.213 307.221 407.95 315.724 412.629C316.839 411.687 316.902 409.881 316.156 408.626C315.41 407.372 314.047 406.602 312.657 406.157C309.645 405.194 306.375 405.523 303.276 406.15C295.941 407.634 288.532 411.111 284.676 417.524C284.49 417.834 284.309 418.162 284.276 418.522ZM246.653 444.985C249.475 443.905 252.426 443.107 255.44 442.897C262.898 442.379 270.52 445.729 275.182 451.573C273.196 452.992 270.581 451.265 268.54 449.917L268.52 449.904C262.006 445.602 253.107 445.217 246.246 448.941C245.711 449.231 245.172 449.546 244.629 449.865L244.628 449.865L244.628 449.865L244.628 449.865L244.626 449.866C242.06 451.369 239.392 452.931 236.63 452.149C238.913 448.652 242.753 446.478 246.653 444.985ZM267.825 441.013C268.995 440.403 270.044 439.6 271.094 438.795C272.097 438.027 273.1 437.259 274.208 436.66C277.331 434.97 281.222 434.775 284.499 436.144C285.455 436.543 286.352 437.064 287.249 437.584C288.022 438.033 288.795 438.481 289.607 438.853C291.36 439.655 293.448 440.072 295.195 439.255C295.389 439.164 295.589 439.045 295.671 438.847C295.804 438.526 295.568 438.179 295.339 437.918C291.43 433.456 285.306 431.039 279.404 431.628C273.502 432.217 267.976 435.797 265.026 440.943C265.642 441.754 266.923 441.483 267.825 441.013ZM224.134 439.612C223.469 440.2 222.804 440.788 222.035 441.226C220.81 441.923 219.16 442.156 218.052 441.285C217.71 439.443 219.569 438.012 221.187 437.067C225.178 434.738 229.468 432.333 234.082 432.571C237.774 432.762 241.144 434.632 244.333 436.502C245.117 436.961 245.921 437.444 246.457 438.178C246.993 438.912 247.194 439.969 246.693 440.727C246.187 441.494 245.121 441.72 244.227 441.511C243.365 441.311 242.62 440.793 241.892 440.288L241.892 440.287L241.807 440.229C239.227 438.438 236.414 436.787 233.295 436.424C230.496 436.099 227.578 436.887 225.338 438.597C224.922 438.915 224.528 439.264 224.134 439.612ZM242.818 423.337C243.651 424.415 245.282 423.259 246.202 422.254C249.035 419.159 253.119 417.242 257.311 417.041C261.502 416.84 265.751 418.356 268.868 421.166L268.971 421.26L269.059 421.34C269.789 422.005 270.568 422.715 271.541 422.741C272.599 422.77 273.552 421.293 272.713 420.648C268.22 417.196 262.992 414.375 257.338 414.002C251.684 413.63 245.591 416.166 242.973 421.192C242.623 421.865 242.354 422.736 242.818 423.337ZM294.418 421.118C293.934 421.617 293.443 422.123 292.807 422.392C292.061 422.707 291.036 422.556 290.676 421.83C290.295 421.064 290.827 420.17 291.381 419.518C296.822 413.116 307.063 411.457 314.247 415.813C315.347 416.48 316.501 417.774 315.853 418.886C315.077 420.22 313.068 419.368 311.732 418.595C306.391 415.505 299.021 416.484 294.671 420.86L294.611 420.921C294.58 420.952 294.55 420.983 294.519 421.015L294.418 421.118ZM296.778 422.803C296.469 423.061 296.161 423.351 296.032 423.731C295.668 424.795 296.961 425.791 298.081 425.701C298.892 425.637 299.615 425.242 300.338 424.847C300.614 424.696 300.89 424.545 301.171 424.413C303.649 423.244 306.628 423.523 309.143 424.609C309.222 424.643 309.3 424.677 309.378 424.713C309.478 424.758 309.577 424.803 309.677 424.849L309.855 424.932L309.855 424.932C310.607 425.282 311.36 425.632 312.175 425.755C313.247 425.916 314.498 425.561 314.986 424.593C310.722 419.309 301.989 418.45 296.778 422.803ZM231.285 420.445C230.876 421.017 230.008 421.074 229.372 420.776C228.781 420.498 228.337 419.993 227.905 419.5L227.806 419.388C224.817 415.999 220.945 413.396 216.679 411.908C215.571 411.522 214.163 410.754 214.474 409.622C217.537 408.577 221.001 409.398 223.751 411.104C226.502 412.81 228.654 415.315 230.655 417.859C231.246 418.61 231.842 419.668 231.285 420.445ZM267.074 423.615C262.039 420.404 255.167 420.347 250.08 423.475C249.196 424.019 248.287 424.783 248.219 425.818C248.15 426.854 249.556 427.815 250.253 427.046C253.064 423.949 258.198 423.306 261.686 425.615C263.398 426.749 265.856 426.595 267.413 425.255C268.148 425.178 267.697 424.012 267.074 423.615ZM284.696 449.66C289.889 444.715 296.546 440.506 303.7 440.989C304.435 441.038 305.422 441.658 304.978 442.246L287.237 449.924C286.363 450.302 285.074 450.533 284.696 449.66ZM236.135 444.486L236.135 444.486C236.84 444.916 237.554 445.352 238.365 445.353C239.376 445.354 240.379 444.136 239.738 443.354C237.718 440.891 234.543 439.419 231.358 439.467C228.172 439.516 225.044 441.085 223.1 443.609C223.34 444.526 224.462 444.948 225.4 444.811C226.076 444.712 226.694 444.41 227.312 444.108L227.312 444.108C227.552 443.991 227.791 443.874 228.034 443.769C230.44 442.727 233.331 442.881 235.612 444.175C235.786 444.273 235.959 444.379 236.133 444.485L236.133 444.485L236.133 444.485L236.134 444.486L236.134 444.486L236.135 444.486ZM272.513 444.707C271.806 444.746 271.007 444.207 271.088 443.503C271.117 443.243 271.259 443.01 271.408 442.795C273.048 440.436 276.012 439.231 278.885 439.205C281.758 439.178 284.55 440.196 287.086 441.545C287.794 441.922 288.59 442.521 288.476 443.314C287.3 444.565 285.354 443.894 283.657 443.309C283.469 443.244 283.283 443.18 283.103 443.12C280.279 442.183 277.07 442.477 274.464 443.913C274.374 443.962 274.284 444.013 274.194 444.064C273.662 444.366 273.119 444.674 272.513 444.707ZM265.748 412.592C268.706 413.651 271.46 415.273 273.82 417.347C273.984 417.491 274.147 417.638 274.311 417.786C275.114 418.51 275.923 419.239 276.904 419.681C278.084 420.214 279.616 420.228 280.539 419.321C278.496 417.753 276.817 415.713 275.672 413.406C275.055 412.163 273.411 411.936 272.025 411.868L265.949 411.571C265.735 411.858 265.66 412.244 265.748 412.592ZM240.987 417.805C240.467 418.467 239.947 419.129 239.332 419.703C238.287 420.68 236.844 421.396 235.447 421.087C236.867 417.643 239.161 414.564 242.056 412.219C244.122 410.545 247.112 410.912 249.732 411.368C249.872 412.315 248.656 412.788 247.731 413.035C245.587 413.607 243.614 414.803 242.116 416.44C241.717 416.875 241.352 417.34 240.987 417.805ZM216.04 418.517L221.674 422.188C222.468 422.706 223.484 423.236 224.308 422.767C225.073 422.331 225.191 421.209 224.792 420.425C224.393 419.64 223.632 419.114 222.902 418.623L218.315 415.534C217.035 414.672 214.949 413.985 214.253 415.362C213.652 416.55 214.925 417.791 216.04 418.517ZM258.216 434.272C257.303 434.709 256.297 433.939 255.578 433.226L253.233 430.898C252.957 430.625 252.66 430.292 252.708 429.907C252.738 429.664 252.903 429.461 253.072 429.284C255.274 426.98 259.458 427.043 261.59 429.413L259.147 433.273C258.901 433.663 258.633 434.073 258.216 434.272ZM222.718 451.624C224.245 452.16 226.047 452.318 227.394 451.421C225.367 449.089 222.99 447.061 220.369 445.425C219.625 444.961 218.786 444.513 217.918 444.636C217.05 444.76 216.282 445.747 216.702 446.516C217.992 448.877 220.179 450.734 222.718 451.624ZM308.668 430.264L306.503 432.88C306.298 433.128 306.069 433.391 305.754 433.46C305.278 433.563 304.844 433.187 304.501 432.84L301.358 429.656C300.896 429.187 301.029 428.351 301.488 427.88C301.947 427.408 302.628 427.23 303.281 427.152C304.989 426.946 306.76 427.298 308.26 428.142C308.691 428.384 309.144 428.74 309.164 429.235C309.18 429.624 308.917 429.963 308.668 430.264ZM231.196 414.04C231.843 414.737 232.656 415.45 233.604 415.372C234.586 415.291 235.247 414.43 235.896 413.583C236.591 412.678 237.273 411.789 238.323 411.888C238.868 410.989 237.38 410.271 236.329 410.254L228.17 410.125C229.057 411.517 230.072 412.83 231.196 414.04ZM264.966 452.194L247.993 452.268C248.176 451.389 249.165 450.968 250.032 450.733C253.902 449.684 258.019 449.56 261.945 450.373C263.142 450.622 264.47 451.076 264.966 452.194ZM282.926 446.314L277.31 446.568C276.706 446.596 275.93 446.771 275.856 447.371C275.823 447.64 275.957 447.897 276.088 448.134C276.583 449.033 277.109 449.967 277.965 450.533C278.821 451.1 280.109 451.155 280.775 450.374C281.004 450.106 281.138 449.77 281.272 449.436C281.436 449.026 281.599 448.618 281.934 448.344C282.156 448.162 282.427 448.062 282.7 447.963C282.908 447.887 283.116 447.81 283.304 447.697C283.738 447.434 284.014 446.753 283.612 446.444C283.423 446.299 283.164 446.304 282.926 446.314ZM233.703 447.059C234.483 447.561 234.956 448.665 234.456 449.446C233.857 450.381 233.109 451.411 232.005 451.52C230.58 451.662 229.559 450.226 228.865 448.973C228.629 448.546 228.385 448.075 228.472 447.595C228.655 446.588 230.002 446.4 231.024 446.45C231.95 446.496 232.924 446.557 233.703 447.059ZM308.404 438.22C309.244 438.289 309.997 437.72 310.586 437.117C312.384 435.279 313.528 432.814 313.769 430.254C313.174 429.874 312.447 430.464 311.991 431.003L307.398 436.433C306.854 437.076 307.564 438.151 308.404 438.22ZM218.466 426.15C217.263 426.8 215.616 426.465 214.763 425.397C213.909 424.329 213.946 422.649 214.845 421.619C214.97 421.476 215.119 421.34 215.305 421.301C215.574 421.246 215.836 421.408 216.063 421.563L218.296 423.085C218.811 423.437 219.37 423.853 219.479 424.467C219.602 425.156 219.082 425.817 218.466 426.15ZM280.873 414.122C281.767 414.872 283.092 414.097 283.979 413.339L286.867 410.871C286.322 410.351 285.451 410.468 284.713 410.621L278.284 411.949L280.873 414.122ZM150.889 357.571C150.232 356.987 150.064 356.032 150.044 355.154C150.022 354.163 150.138 353.169 150.388 352.209L154.65 357.757C154.904 358.088 155.113 358.657 154.737 358.839C154.204 358.482 153.549 358.381 152.898 358.28C152.162 358.166 151.431 358.053 150.889 357.571ZM314.529 403.608C315.068 404.28 316.204 404.135 316.823 403.535C317.442 402.935 317.67 402.048 317.847 401.205C317.89 401.002 317.93 400.783 317.845 400.594C317.629 400.114 316.916 400.259 316.438 400.481C315.154 401.08 313.641 402.503 314.529 403.608ZM266.303 158.315C266.824 157.012 268.038 156.132 269.234 155.398C272.842 153.182 276.849 151.617 281.004 150.801C281.998 150.606 283.183 150.51 283.873 151.252C284.65 152.087 284.261 153.53 283.4 154.276C282.632 154.941 281.621 155.213 280.633 155.48C280.512 155.513 280.391 155.545 280.271 155.579C276.948 156.499 273.822 158.123 271.159 160.314C270.136 161.156 268.922 162.148 267.645 161.794C266.293 161.418 265.781 159.617 266.303 158.315ZM191.561 158.619C190.597 158.097 189.945 156.794 190.546 155.876C190.895 155.342 191.546 155.098 192.164 154.941C197.174 153.67 202.361 155.914 206.892 158.401C207.912 158.96 208.962 159.57 209.605 160.54C210.248 161.509 210.342 162.946 209.503 163.752C208.099 165.102 205.872 163.714 204.287 162.583C201.511 160.602 198.175 159.415 194.772 159.197C194.62 159.187 194.467 159.179 194.313 159.171C193.361 159.12 192.392 159.069 191.561 158.619ZM244.079 230.445L240.783 221.047C237.851 223.163 235.658 226.286 234.663 229.763C233.763 229.031 233.729 227.793 233.697 226.577V226.577C233.687 226.213 233.677 225.852 233.644 225.507C233.45 223.458 232.163 221.545 230.339 220.593C228.514 219.64 226.209 219.677 224.417 220.688C224.892 221.729 226.012 222.059 227.166 222.399C227.931 222.625 228.712 222.855 229.327 223.3C230.627 224.24 231 226.012 231.02 227.617C231.025 228.019 231.015 228.424 231.004 228.83C230.974 230.042 230.943 231.256 231.321 232.397C231.444 232.765 231.617 233.133 231.915 233.381C232.76 234.084 234.04 233.5 234.896 232.81C236.83 231.251 238.351 229.184 239.264 226.873C240.069 227.678 240.366 228.807 240.661 229.928C240.748 230.257 240.834 230.585 240.933 230.904C241.37 232.31 242.413 233.812 243.883 233.744C244.863 233.699 245.653 232.961 246.347 232.268L250.334 228.285C250.814 227.805 251.335 227.195 251.181 226.534C251.032 225.899 250.28 225.559 249.634 225.65C248.989 225.741 248.437 226.148 247.931 226.56C246.516 227.715 245.222 229.02 244.079 230.445ZM234.971 192.746C235.184 191.023 235.301 189.016 234.035 187.829C231.674 185.612 229.606 183.084 227.902 180.33C227.159 179.129 226.461 177.726 226.815 176.358C227.35 174.293 229.861 173.546 231.978 173.289C235.366 172.876 238.796 172.806 242.198 173.08C243.66 173.198 245.209 173.417 246.328 174.365C247.447 175.314 247.85 177.236 246.771 178.229C241.477 183.094 238.378 190.262 238.458 197.451C240.421 198.725 242.416 200.014 244.652 200.703C246.888 201.392 249.436 201.415 251.453 200.229C252.302 199.729 253.015 199.046 253.729 198.361C254.222 197.888 254.715 197.415 255.255 197.001C256.577 195.987 258.469 195.359 259.885 196.236L254.497 201.197C252.35 203.174 249.683 205.301 246.841 204.635C245.9 204.415 245.073 203.906 244.244 203.395C243.75 203.09 243.256 202.786 242.735 202.541C239.952 201.231 236.687 201.721 233.679 202.366C233.496 202.405 233.313 202.445 233.129 202.485C230.291 203.1 227.354 203.736 224.568 202.972C221.602 202.158 219 199.075 219.928 196.143C221.795 198.876 225.047 200.608 228.356 200.633C229.628 200.643 230.938 200.4 231.991 199.688C234.146 198.231 234.653 195.328 234.971 192.746Z" fill="#00160A"/>
</svg>
