<!-- Generated by IcoMoon.io -->
<svg version="1.1" xmlns="http://www.w3.org/2000/svg" width="512" height="512" viewBox="0 0 512 512">
<title></title>
<g id="icomoon-ignore">
</g>
<path d="M256 16c-132.548 0-240 33.578-240 75v60c0 41.422 107.451 75 240 75s240-33.578 240-75v-60c0-41.422-107.452-75-240-75z"></path>
<path d="M256 271c-132.548 0-240-33.578-240-75v90c0 41.421 107.451 75 240 75s240-33.579 240-75v-90c0 41.422-107.452 75-240 75z"></path>
<path d="M256 406c-132.548 0-240-33.579-240-75v90c0 41.421 107.451 75 240 75s240-33.579 240-75v-90c0 41.421-107.452 75-240 75z"></path>
</svg>
