<!-- Generated by IcoMoon.io -->
<svg version="1.1" xmlns="http://www.w3.org/2000/svg" width="512" height="512" viewBox="0 0 512 512">
<title></title>
<g id="icomoon-ignore">
</g>
<path fill="#000" d="M256.224 353.312c-0.592 0-1.184 0-1.776 0-140.512 0-254.16-34.128-254.192-60.336l-0.256-102.928c0-0.16 0.064-0.304 0.064-0.432 23.136 10.976 50.32 16.032 66.576 19.056 50.512 9.392 117.232 14.576 187.808 14.576h1.776c71.024-0.080 138.128-5.392 189.008-14.944 16.272-3.056 43.36-8.144 66.512-19.056 0 0.048 0 0.144 0 0.144l0.272 102.928c0.032 26.32-114.448 60.8-255.792 60.992zM256.224 192.256c-0.592 0-1.184 0-1.776 0-140.512 0-254.16-31.136-254.192-57.344l-0.256-86.944c-0.048-26.304 114.496-47.792 255.84-47.968 0.624 0 1.216 0 1.84 0 140.464 0 254.032 21.12 254.064 47.328l0.272 86.944c0.032 26.304-114.448 57.792-255.792 57.984zM254.432 384.32h1.776c71.024-0.096 138.144-8.384 189.008-17.936 16.272-3.056 43.36-8.144 66.528-19.072l0.256 116.736c0.032 26.32-114.448 47.792-255.792 47.968-0.608 0-1.184 0-1.808 0-140.48 0-254.128-21.12-254.16-47.312l-0.24-117.040c23.136 10.992 50.336 16.048 66.624 19.072 50.512 9.408 117.216 17.584 187.808 17.584z"></path>
</svg>
