<!-- Generated by IcoMoon.io -->
<svg version="1.1" xmlns="http://www.w3.org/2000/svg" width="512" height="512" viewBox="0 0 512 512">
<title></title>
<g id="icomoon-ignore">
</g>
<path style="fill:#FF555D" d="M256 0c-141.385 0-256 114.615-256 256s114.613 256 256 256c141.385 0 256-114.615 256-256s-114.615-256-256-256zM352 118c31.981 0 58 26.019 58 58 0 3.189-0.273 6.438-0.814 9.656-0.809 4.816-4.979 8.344-9.862 8.344s-9.054-3.528-9.861-8.345c-3.080-18.342-18.835-26.655-37.463-26.655s-34.383 8.313-37.462 26.655c-0.808 4.816-4.978 8.345-9.861 8.345-0.001 0 0 0-0.001 0-4.883 0-9.053-3.528-9.861-8.344-0.542-3.218-0.815-6.467-0.815-9.656 0-31.981 26.019-58 58-58zM160 118c31.981 0 58 26.019 58 58 0 3.189-0.274 6.438-0.814 9.656-0.809 4.816-4.978 8.344-9.862 8.344s-9.053-3.528-9.861-8.345c-3.080-18.342-18.835-26.655-37.463-26.655s-34.383 8.313-37.462 26.655c-0.808 4.816-4.978 8.345-9.861 8.345 0 0 0 0 0 0-4.883 0-9.053-3.528-9.862-8.344-0.541-3.218-0.815-6.467-0.815-9.656 0-31.981 26.019-58 58-58zM96 288h96v123.923c-55.047-14.303-96-64.562-96-123.923zM224 416v-128h64v128h-64zM320 411.923v-123.923h96c0 59.361-40.952 109.62-96 123.923z"></path>
</svg>
