<!-- Generated by IcoMoon.io -->
<svg version="1.1" xmlns="http://www.w3.org/2000/svg" width="1024" height="1024" viewBox="0 0 1024 1024">
<title></title>
<g id="icomoon-ignore">
</g>
<path style="fill:#FF555D" d="M610.56 7.68l38.4 8.533 31.147 11.093 25.173 12.8 19.2 13.653 14.507 14.507 10.667 14.507 6.827 14.080 4.267 12.8 1.707 11.093 0.853 8.533-0.427 5.547v227.84l-2.133 26.88-5.547 23.467-8.96 19.627-11.093 16.213-12.8 13.227-14.080 10.667-14.933 8.107-14.933 5.973-14.080 4.267-12.8 2.987-11.093 1.707-8.96 0.853h-254.72l-29.44 2.133-25.173 5.973-21.333 9.387-17.493 11.52-14.080 13.653-11.52 14.933-8.533 15.36-6.4 15.787-4.267 14.933-2.987 13.653-1.707 11.52-0.853 8.96v130.56h-95.147l-8.96-1.28-11.947-2.987-13.653-5.12-14.933-7.68-15.36-11.093-15.36-15.36-14.933-19.627-13.653-25.173-11.947-31.147-8.96-37.547-5.973-44.8-2.133-52.48 2.56-52.053 6.827-44.373 10.24-37.12 13.653-30.293 15.36-24.32 17.067-18.773 17.92-14.080 17.92-10.24 17.067-6.827 15.36-4.267 13.653-2.133 10.24-0.427h6.827l2.56 0.427h348.16v-35.413h-249.173l-0.427-117.333-0.853-15.787 2.133-14.507 4.693-13.227 7.253-11.947 10.667-11.093 13.227-9.813 16.213-8.533 18.773-7.68 21.76-6.4 24.747-5.12 27.307-4.267 30.293-2.56 32.853-1.707 35.84-0.853 54.187 2.133zM341.76 92.16l-9.813 14.080-3.413 17.493 3.413 17.493 9.813 14.507 14.080 9.387 17.493 3.84 17.493-3.84 14.080-9.387 9.813-14.507 3.413-17.493-3.413-17.493-9.813-14.080-14.080-9.387-17.493-3.84-17.493 3.84zM900.267 260.693l11.947 2.56 13.653 5.12 14.933 7.68 15.36 11.52 15.36 14.933 14.933 20.053 13.653 25.173 11.947 31.147 8.96 37.547 5.973 44.373 2.133 52.48-2.56 52.48-6.827 44.373-10.24 36.693-13.653 30.293-15.36 24.32-17.067 19.2-17.92 14.080-17.92 10.24-17.067 6.827-15.36 3.84-13.653 2.133-10.24 0.853-6.827-0.427h-350.72v34.987h249.173l0.427 117.76 0.853 15.36-2.133 14.507-4.693 13.227-7.253 12.373-10.667 10.667-13.227 10.24-16.213 8.533-18.773 7.253-21.76 6.4-24.747 5.547-27.307 3.84-30.293 2.987-32.853 1.707-35.84 0.427-54.187-1.707-45.653-5.973-38.4-8.533-31.147-10.667-25.173-12.8-19.2-14.080-14.507-14.507-10.667-14.507-6.827-14.080-4.267-12.8-1.707-10.667-0.853-8.533 0.427-5.547v-227.84l2.133-27.307 5.547-23.040 8.96-19.627 11.093-16.213 12.8-13.653 14.080-10.24 14.933-8.533 14.933-5.973 14.080-4.267 12.8-2.56 11.093-1.707 8.96-0.853 5.547-0.427h249.173l29.44-2.133 25.173-5.973 21.333-8.96 17.493-11.947 14.080-13.653 11.52-14.933 8.533-15.36 6.4-15.36 4.267-14.933 2.987-13.653 1.707-11.947 0.853-8.96v-130.56h89.173l5.973 0.427zM624.213 868.693l-9.813 14.080-3.413 17.493 3.413 17.493 9.813 14.080 14.080 9.813 17.493 3.413 17.493-3.413 14.080-9.813 9.813-14.080 3.413-17.493-3.413-17.493-9.813-14.080-14.080-9.813-17.493-3.413-17.493 3.413z"></path>
</svg>
