<!-- Generated by IcoMoon.io -->
<svg version="1.1" xmlns="http://www.w3.org/2000/svg" width="1024" height="1024" viewBox="0 0 1024 1024">
<title></title>
<g id="icomoon-ignore">
</g>
<path style="fill:#FF555D" d="M512 420.736c-50.404 0-91.264 40.86-91.264 91.264s40.86 91.264 91.264 91.264v0c50.404 0 91.264-40.86 91.264-91.264s-40.86-91.264-91.264-91.264v0zM256.341 693.547l-20.139-5.12c-150.101-37.931-236.203-102.315-236.203-176.597s86.101-138.667 236.203-176.597l20.139-5.077 5.675 19.968c17.427 59.534 37.207 110.167 60.77 158.621l-2.615-5.96 4.309 9.088-4.309 9.088c-21.008 42.541-40.79 93.177-56.362 145.624l-1.793 7.037zM226.859 381.867c-114.091 32.043-184.107 81.067-184.107 129.963 0 48.853 70.016 97.877 184.107 129.963 16.375-51.835 33.476-94.868 53.189-136.421l-2.757 6.459c-16.998-35.141-34.1-78.175-48.354-122.486l-2.078-7.477zM767.659 693.547l-5.675-20.011c-17.397-59.48-37.192-110.1-60.795-158.523l2.598 5.904-4.309-9.088 4.309-9.088c20.991-42.518 40.785-93.152 56.391-145.59l1.806-7.071 5.675-19.968 20.181 5.077c150.059 37.931 236.16 102.315 236.16 176.64s-86.101 138.667-236.16 176.597zM746.709 511.829c20.48 44.331 37.419 87.893 50.432 129.963 114.133-32.085 184.107-81.109 184.107-129.963 0-48.896-70.016-97.877-184.107-129.963-16.34 51.795-33.441 94.829-53.171 136.372l2.739-6.41zM226.56 381.653l-5.675-19.925c-42.197-148.736-29.397-255.317 35.115-292.523 63.275-36.523 164.864 6.613 271.317 115.883l14.507 14.891-14.507 14.891c-36.676 38.083-70.629 79.417-101.171 123.302l-2.168 3.29-5.76 8.235-10.027 0.853c-59.99 4.821-115.073 14.042-168.464 27.517l6.97-1.49zM307.456 98.773c-11.435 0-21.547 2.475-30.080 7.381-42.411 24.448-49.92 109.44-20.693 224.128 38.731-9.119 85.784-16.673 133.752-21.066l4.19-0.31c28.61-40.451 57.346-75.851 88.205-109.26l-0.653 0.716c-66.56-64.811-129.579-101.589-174.72-101.589zM716.587 967.552c-0.043 0-0.043 0 0 0-60.8 0-138.88-45.781-219.904-128.981l-14.507-14.891 14.507-14.891c36.663-38.090 70.602-79.438 101.126-123.338l2.17-3.297 5.76-8.235 9.984-0.853c60.002-4.793 115.118-14 168.539-27.471l-6.961 1.487 20.139-5.077 5.717 19.968c42.112 148.651 29.355 255.275-35.157 292.437-14.374 8.272-31.607 13.151-49.98 13.151-0.504 0-1.007-0.004-1.509-0.011l0.076 0.001zM541.824 823.296c66.56 64.811 129.579 101.589 174.72 101.589h0.043c11.392 0 21.547-2.475 30.037-7.381 42.411-24.448 49.963-109.483 20.693-224.171-38.768 9.137-85.837 16.691-133.824 21.070l-4.16 0.306c-28.571 40.473-57.296 75.887-88.158 109.297l0.648-0.71zM797.44 381.653l-20.139-5.077c-46.487-12.029-101.603-21.252-158.039-25.797l-3.539-0.229-9.984-0.853-5.76-8.235c-32.67-47.183-66.61-88.519-103.593-126.902l0.297 0.31-14.507-14.891 14.507-14.891c106.411-109.227 207.957-152.363 271.317-115.883 64.512 37.205 77.312 143.787 35.157 292.48zM629.333 308.907c48.725 4.437 95.019 11.648 137.984 21.376 29.269-114.688 21.717-199.68-20.693-224.128-42.155-24.363-121.387 12.971-204.8 94.208 30.188 32.69 58.911 68.089 85.298 105.262l2.212 3.282zM307.456 967.552c-0.439 0.007-0.956 0.011-1.475 0.011-18.373 0-35.607-4.88-50.476-13.414l0.495 0.262c-64.512-37.163-77.312-143.744-35.115-292.437l5.632-19.968 20.139 5.077c49.28 12.416 103.637 21.163 161.493 25.984l10.027 0.853 5.717 8.235c32.719 47.191 66.671 88.538 103.646 126.955l-0.307-0.321 14.507 14.891-14.507 14.891c-80.981 83.2-159.061 128.981-219.776 128.981zM256.683 693.333c-29.269 114.688-21.717 199.723 20.693 224.171 42.112 24.021 121.301-13.013 204.8-94.208-30.181-32.703-58.917-68.115-85.33-105.292l-2.222-3.294c-52.126-4.681-99.18-12.235-145.102-22.757l7.161 1.381zM512 720.128c-35.115 0-71.211-1.536-107.349-4.523l-10.027-0.853-5.76-8.235c-17.419-24.566-36.456-54.116-54.294-84.456l-3.306-6.082c-14.479-24.255-31.065-55.411-46.384-87.29l-3.365-7.771-4.267-9.088 4.267-9.088c18.676-39.64 35.262-70.796 53.052-101.162l-3.303 6.1c17.664-30.549 37.077-61.013 57.6-90.539l5.76-8.235 10.027-0.853c32.164-2.894 69.575-4.544 107.371-4.544s75.208 1.65 112.166 4.882l-4.795-0.338 9.984 0.853 5.717 8.235c37.651 53.308 73.422 114.148 104.065 177.917l3.327 7.683 4.309 9.088-4.309 9.088c-33.853 71.409-69.628 132.255-110.056 189.584l2.664-3.984-5.717 8.235-9.984 0.853c-36.139 2.987-72.277 4.523-107.392 4.523zM418.261 673.877c63.147 4.736 124.331 4.736 187.52 0 32.123-46.25 63.305-99.337 90.466-154.753l3.23-7.295c-30.297-62.657-61.496-115.748-96.387-166.086l2.648 4.038c-28.060-2.262-60.749-3.552-93.739-3.552s-65.677 1.29-98.016 3.821l4.277-0.269c-32.27 46.312-63.469 99.404-90.57 154.865l-3.169 7.183c30.431 62.72 61.625 115.806 96.447 166.192l-2.709-4.144z"></path>
</svg>
