<!-- Generated by IcoMoon.io -->
<svg version="1.1" xmlns="http://www.w3.org/2000/svg" width="1024" height="1024" viewBox="0 0 1024 1024">
<title></title>
<g id="icomoon-ignore">
</g>
<path style="fill:#FF555D" d="M654.379 1023.104l307.883-66.603c0 0-111.104-751.488-112-756.48-0.768-4.949-4.864-8.192-9.003-8.192s-82.304-5.803-82.304-5.803-54.4-54.357-61.397-60.203c-1.92-1.579-3.2-2.432-5.163-3.157l-38.997 900.437zM499.627 482.347c0 0-34.56-18.091-75.691-18.091-61.739 0-64.171 38.656-64.171 48.683 0 52.565 138.24 73.173 138.24 197.504 0 97.92-61.44 160.427-145.323 160.427-100.437 0-151.040-62.507-151.040-62.507l27.563-89.003c0 0 53.12 45.483 97.28 45.483 28.8 0 41.6-23.253 41.6-39.765 0-69.077-113.237-72.277-113.237-185.984-1.451-95.445 67.029-188.416 205.952-188.416 53.632 0 80 15.403 80 15.403l-40.32 115.84zM476.587 35.413c5.803 0 11.563 1.621 17.28 5.76-41.984 19.84-88.064 69.931-107.008 170.325-27.989 9.088-55.168 17.28-80.597 24.661 22.144-76.16 75.648-200.32 170.325-200.32zM529.28 161.237v5.76c-32.171 9.899-67.541 20.651-102.144 31.403 19.883-75.819 56.875-112.853 88.96-126.763 8.235 21.376 13.184 50.176 13.184 89.6zM552.277 65.92c29.611 3.157 48.683 36.992 60.971 74.88-14.891 4.864-31.36 9.856-49.408 15.616v-10.752c0-32.085-4.096-58.496-11.563-79.829zM679.936 120.917c-0.853 0-2.56 0.896-3.328 0.896s-12.331 3.2-30.464 8.96c-18.048-52.608-50.176-101.12-107.008-101.12h-4.907c-16.469-20.736-36.352-29.653-53.589-29.653-132.523 0-195.84 165.419-215.68 249.429-50.944 15.573-88.021 27.136-92.16 28.757-28.8 9.088-29.611 9.899-32.939 37.12-3.2 19.712-78.080 600.021-78.080 600.021l578.603 108.672z"></path>
</svg>
